<?xml version="1.0" encoding="utf-8"?>
<!-- Generator: Adobe Illustrator 21.0.0, SVG Export Plug-In . SVG Version: 6.00 Build 0)  -->
<svg version="1.1" id="Capa_1" xmlns="http://www.w3.org/2000/svg" xmlns:xlink="http://www.w3.org/1999/xlink" x="0px" y="0px"
	 viewBox="0 0 512 512" style="enable-background:new 0 0 512 512;" xml:space="preserve">
<style type="text/css">
	.st0{fill:#E51E2C;}
</style>
<g>
	<path id="XMLID_1662_" class="st0" d="M389.7,6H122.3c-8.1,0-14.6,6.6-14.6,14.6v442.5c0,8.1,6.6,14.6,14.6,14.6h18.2v13.5
		c0,8.1,6.6,14.6,14.6,14.6s14.6-6.6,14.6-14.6v-13.5h168.3v13.5c0,8.1,6.6,14.6,14.6,14.6s14.6-6.6,14.6-14.6v-13.5h22.3
		c8.1,0,14.6-6.6,14.6-14.6V20.6C404.3,12.6,397.8,6,389.7,6z M375,448.5H137V193.8H375V448.5z M375,164.5H137V35.3H375V164.5z"/>
	<path id="XMLID_1661_" class="st0" d="M180.9,145.6c8.1,0,14.6-6.6,14.6-14.6V66.2c0-8.1-6.6-14.6-14.6-14.6s-14.6,6.6-14.6,14.6
		V131C166.3,139.1,172.8,145.6,180.9,145.6z"/>
	<path id="XMLID_1618_" class="st0" d="M180.9,416.8c8.1,0,14.6-6.6,14.6-14.6V226.1c0-8.1-6.6-14.6-14.6-14.6s-14.6,6.6-14.6,14.6
		v176.1C166.3,410.2,172.8,416.8,180.9,416.8z"/>
</g>
</svg>
