<?xml version="1.0" encoding="utf-8"?>
<!-- Generator: Adobe Illustrator 21.0.0, SVG Export Plug-In . SVG Version: 6.00 Build 0)  -->
<svg version="1.1" id="Layer_1" xmlns="http://www.w3.org/2000/svg" xmlns:xlink="http://www.w3.org/1999/xlink" x="0px" y="0px"
	 viewBox="0 0 512 512" style="enable-background:new 0 0 512 512;" xml:space="preserve">
<style type="text/css">
	.st0{fill:#2E992B;}
</style>
<g>
	<path class="st0" d="M95.9,388.1c-6.5,0-12.8,1.4-18.6,4.2C47.4,353.4,31.1,305,31.1,256C31.1,132,132,31.1,256,31.1
		c15.1,0,30.1,1.5,44.8,4.4c3.3,0.7,6.7,0,9.5-1.8c2.8-1.8,4.7-4.7,5.4-8c1.4-6.8-3-13.4-9.8-14.8C289.5,7.6,272.7,6,256,6
		C189.2,6,126.5,32,79.3,79.3C32,126.5,6,189.2,6,256c0,55.3,18.6,109.7,52.5,153.3c-4.1,6.8-6.2,14.4-6.2,22.3
		c0,11.6,4.5,22.5,12.7,30.7c8.2,8.2,19.1,12.7,30.7,12.7s22.5-4.5,30.7-12.7c8.2-8.2,12.7-19.1,12.7-30.7
		c0-11.6-4.5-22.5-12.7-30.7C118.4,392.7,107.4,388.1,95.9,388.1z M108.8,444.6L108.8,444.6c-3.5,3.5-8.1,5.4-12.9,5.4
		c-4.9,0-9.5-1.9-12.9-5.4c-3.5-3.5-5.4-8.1-5.4-12.9c0-4.9,1.9-9.5,5.4-12.9c3.5-3.5,8.1-5.4,12.9-5.4c4.9,0,9.5,1.9,12.9,5.4
		c3.5,3.5,5.4,8.1,5.4,12.9C114.2,436.5,112.3,441.1,108.8,444.6z"/>
	<path class="st0" d="M453.5,102.6c10.1-17,7.5-38.9-6.6-53c-8.2-8.2-19.1-12.7-30.7-12.7s-22.5,4.5-30.7,12.7
		c-8.2,8.2-12.7,19.1-12.7,30.7s4.5,22.5,12.7,30.7c8.2,8.2,19.1,12.7,30.7,12.7c6.5,0,12.8-1.4,18.6-4.2c29.7,39,46,87.4,46,136.4
		c0,124-100.9,224.9-224.9,224.9c-15,0-29.8-1.4-44.4-4.3c-6.8-1.4-13.4,3.1-14.8,9.8c-1.4,6.8,3.1,13.4,9.8,14.8
		c16.1,3.2,32.7,4.8,49.3,4.8c66.8,0,129.5-26,176.7-73.3c47.2-47.2,73.3-110,73.3-176.7C506,200.7,487.4,146.3,453.5,102.6z
		 M416.1,98.8c-4.9,0-9.5-1.9-12.9-5.4c-3.5-3.5-5.4-8.1-5.4-12.9c0-4.9,1.9-9.5,5.4-12.9c3.5-3.5,8.1-5.4,12.9-5.4
		c4.9,0,9.5,1.9,12.9,5.4c7.1,7.1,7.1,18.8,0,26C425.7,96.8,421.1,98.8,416.1,98.8z"/>
	<path class="st0" d="M213.2,422c0,6.9,5.6,12.5,12.5,12.5h60.3c6.9,0,12.5-5.6,12.5-12.5v-16.5c11.4-3.3,22.5-7.8,32.8-13.6
		l11.7,11.7c2.4,2.4,5.5,3.7,8.9,3.7c3.3,0,6.6-1.4,8.9-3.7l42.7-42.7c4.9-4.9,4.9-12.8,0-17.8l-11.7-11.7
		c5.8-10.4,10.3-21.4,13.6-32.8h16.4c6.9,0,12.5-5.6,12.5-12.5v-60.3c0-6.9-5.6-12.5-12.5-12.5h-16.4c-3.3-11.4-7.8-22.5-13.6-32.8
		l11.6-11.6c2.3-2.3,3.7-5.6,3.7-8.9s-1.4-6.6-3.7-8.9l-42.7-42.7c-4.9-4.9-12.8-4.9-17.8,0L331.5,120
		c-10.4-5.8-21.4-10.3-32.8-13.6V90c0-6.9-5.6-12.5-12.5-12.5h-60.3c-6.9,0-12.5,5.6-12.5,12.5v16.3c-11.4,3.3-22.5,7.8-32.8,13.6
		l-11.6-11.6c-4.9-4.9-12.8-4.9-17.8,0L108.4,151c-2.4,2.4-3.7,5.5-3.7,8.9c0,3.3,1.4,6.6,3.7,8.9l11.6,11.6
		c-5.8,10.4-10.3,21.4-13.6,32.8H90c-6.9,0-12.5,5.6-12.5,12.5V286c0,3.3,1.4,6.6,3.7,8.9c2.4,2.4,5.5,3.7,8.9,3.7h16.4
		c3.3,11.4,7.8,22.5,13.6,32.8l-11.7,11.7c-4.9,4.9-4.9,12.8,0,17.8l42.7,42.7c2.4,2.4,5.5,3.7,8.9,3.7c3.4,0,6.5-1.4,8.9-3.7
		l11.7-11.7c10.4,5.8,21.4,10.3,32.8,13.6V422z M144.7,342.3c4.2-4.2,4.8-10.7,1.6-15.6c-8.6-13.2-14.6-27.8-17.9-43.1
		c-1.3-5.7-6.4-9.9-12.3-9.9h-13.7v-35.2h13.7c5.9,0,11-4.2,12.3-9.9c3.3-15.3,9.4-29.9,17.9-43.1c3.2-4.9,2.5-11.5-1.6-15.6
		l-9.7-9.7l24.9-24.9l9.7,9.7c4.2,4.2,10.7,4.8,15.6,1.6c13.2-8.6,27.8-14.6,43.1-17.9c5.7-1.3,9.9-6.4,9.9-12.3v-13.7h35.2v13.6
		c0,5.9,4.2,11,9.9,12.3c15.4,3.3,29.9,9.4,43.1,17.9c4.9,3.2,11.5,2.5,15.6-1.6l9.7-9.7l24.9,24.9l-9.7,9.7
		c-4.2,4.2-4.8,10.7-1.6,15.6c8.6,13.2,14.6,27.8,17.9,43.1c1.3,5.8,6.4,9.9,12.3,9.9h13.8v35.2h-13.7c-5.9,0-11,4.2-12.3,9.9
		c-3.3,15.3-9.4,29.9-17.9,43.1c-3.2,4.9-2.5,11.5,1.6,15.6l9.7,9.7L352,376.8l-9.7-9.7c-4.2-4.2-10.7-4.8-15.6-1.6
		c-13.2,8.6-27.8,14.6-43.1,17.9c-5.7,1.3-9.9,6.4-9.9,12.3v13.9h-35.2v-13.8c0-5.9-4.2-11-9.9-12.3c-15.3-3.3-29.9-9.4-43.1-17.9
		c-4.9-3.2-11.5-2.5-15.6,1.6l-9.7,9.7L135,352L144.7,342.3z"/>
	<path class="st0" d="M256,338.6c45.6,0,82.6-37.1,82.6-82.6s-37.1-82.6-82.6-82.6s-82.6,37.1-82.6,82.6S210.4,338.6,256,338.6z
		 M256,198.5c31.8,0,57.5,25.8,57.5,57.5s-25.8,57.5-57.5,57.5s-57.5-25.8-57.5-57.5S224.2,198.5,256,198.5z"/>
	<path class="st0" d="M344.9,48.3c3.3,0,6.6-1.4,8.9-3.7c2.3-2.3,3.7-5.6,3.7-8.9c0-3.3-1.4-6.6-3.7-8.9c-2.3-2.3-5.6-3.7-8.9-3.7
		s-6.6,1.4-8.9,3.7c-2.3,2.3-3.7,5.6-3.7,8.9s1.4,6.6,3.7,8.9C338.3,46.9,341.6,48.3,344.9,48.3z"/>
	<path class="st0" d="M167.6,463.9c-3.3,0-6.6,1.4-8.9,3.7c-2.3,2.3-3.7,5.6-3.7,8.9c0,3.3,1.4,6.6,3.7,8.9c2.3,2.3,5.6,3.7,8.9,3.7
		s6.6-1.4,8.9-3.7c2.3-2.3,3.7-5.6,3.7-8.9c0-3.3-1.4-6.6-3.7-8.9C174.1,465.2,170.9,463.9,167.6,463.9z"/>
</g>
</svg>
