<?xml version="1.0" encoding="utf-8"?>
<!-- Generator: Adobe Illustrator 21.0.0, SVG Export Plug-In . SVG Version: 6.00 Build 0)  -->
<svg version="1.1" id="Layer_1" xmlns="http://www.w3.org/2000/svg" xmlns:xlink="http://www.w3.org/1999/xlink" x="0px" y="0px"
	 viewBox="0 0 479 479" style="enable-background:new 0 0 479 479;" xml:space="preserve">
<style type="text/css">
	.st0{fill:#83007F;}
</style>
<g>
	<path class="st0" d="M469.9,223.2c0.2-0.9,0.4-1.6,0.4-2.5v-0.2c0-1.2-0.2-2.4-0.6-3.6l-0.5-1.2c-3.1-30.1-12.1-58.9-26.5-85.5
		c-14.5-26.8-33.8-50.1-57.4-69.3c-2.9-2.4-6-4.7-9-6.7l-1.1-0.9c-0.2-0.2-0.5-0.5-0.8-0.8s-0.7-0.4-0.9-0.5
		C334.1,23.8,287.7,8.8,239.2,8.8c-2,0-4,0-5.6,0.2c-25.1,0.5-49.7,5.1-73.3,13.8C139,7,110,4.4,86.1,16.1
		C61.6,28.1,45.8,53.6,45.8,80.9v0.2c0.5,8.4,2.3,16.6,5.4,24.5c-7.3,10.2-13.9,21.1-19.4,32.3c-0.1,0.2-0.2,0.4-0.3,0.6l-0.1,0.1
		C4.9,193.2,1,255.1,20.3,312.7S79.9,417.3,133.9,445c33.1,17.1,69.2,25.7,105.6,25.7c22.9,0,45.8-3.4,68.3-10.3
		c58.1-17.8,106-57,135.2-110.4c16.4-30.2,25.8-64.3,27.3-98.4c0.2-3.4,0.3-7.1,0.3-11.4C470.6,235.1,470.4,229.5,469.9,223.2z
		 M447.4,254.3c-1.6,25.7-8.1,50.5-19,73.9c-6.3-3.6-12.8-6.7-19.6-9.2c4.9-10.3,7.9-21.5,8.7-32.9v-0.3
		c-0.1-27.6-15.6-52.5-40.3-64.7l-0.6-0.3c-1.9-0.9-3.7-1.7-5.4-2.4c-1-0.4-2.2-0.8-3.1-1l-0.8-0.3c-0.4-0.1-0.8-0.3-1-0.4
		c-0.4-0.1-0.7-0.3-1-0.4l-0.2-0.1c-2-0.6-4.1-1-6.3-1.4l-0.4-0.1h-0.1c-0.9-0.2-1.7-0.3-2.6-0.4l-0.9-0.1
		c-20.6-2.8-41.4,3.4-57,17.1c-15.7,13.8-24.5,33.5-24.4,54.4v0.2c0.7,10.6,3.2,20.9,7.9,30.6c3.9,8.9,8.4,17.8,13.2,26.2
		c-4.2,4.7-8,9.8-11.5,14.9l-0.1,0.2c-1.3,2.2-2.8,4.3-4.5,6.1c-1.1-2-2.9-5.9-5.5-13.5c-3.3-10.2-4.4-21.1-3-31.7
		c2.1-11,0-22.3-6-31.9l-0.1-0.2c-10.6-14.8-28.4-17.4-45.7-19.8c-13.3-1.8-26.6-1.2-39.7,1.8c-9.9,1.9-12.8,2.1-16.5-0.1
		c-8.1-5.6-12.2-15.3-10.3-25c1.4-4,5.9-5.7,17.9-9.7c16.6-4.7,32.2-12.3,46.2-22.5c11.4-8.4,41.7-30.6,42.6-61.9
		c0.6-17.5-8.4-28.4-16.1-38.1l-0.2-0.2c-6.7-7.2-11.7-16-14.3-25.4c-3.6-15.3,0.8-33.5,13-54.2c39.1,0.3,77.1,11.5,110.1,32.4
		c-2.9,2.7-6.3,4.8-9.9,6.6c-4.7,2-9.8,2.8-14.8,2.3c-8.9-1-17.8,1.2-25.3,6.5c-18.5,14-26.9,49.4-10.3,75.8
		c11.9,18.9,31.7,23.3,52.8,27.8c11.7,2.5,23.4,2.4,35.1-0.2c8.3-2,16.9-1.9,25.1,0.1c9.5,2.8,18.3,7.1,26.2,13.1
		c7.9,6.5,14,15.1,17.5,24.8c0.7,7,0.9,13.4,0.9,19.5c0,3.9-0.1,7.1-0.3,10.1L447.4,254.3L447.4,254.3z M193.7,443.8
		C99,422.5,30.8,337.9,30.6,240.2c0-4,0.1-7.9,0.4-11.9c4.7,31,9.5,60.4,32.7,87.5c10,11.7,26.6,31.3,53,34.3c2.3,0.3,4.7,0.4,7,0.4
		c24.3,0,51.6-12.5,60-16.7l3.4-1.7l0.3-0.2c4.2-2.6,8.9-4.2,13.8-4.5c8.5,0.9,16.3,4.8,22,11.4c11.7,12.9,14.9,34.9,6.8,46.4
		c-2.5,3.2-5.8,5.5-9.8,6.7c-8.7,2.9-16.2,8.9-21.1,16.8l-0.1,0.1C193.2,419.6,191.4,432,193.7,443.8z M117.8,175.4
		c-16.6-23-31.1-47.5-43.4-73c-3.3-6.8-5.3-14.1-5.9-21.6c0.1-27.1,22.2-49.2,49.3-49.2c27.1,0,49.3,22.2,49.4,49.3
		C167.2,99.4,141.2,142.4,117.8,175.4z M65.5,135.5c0.9,1.4,1.6,2.9,2.5,4.4l0.5,0.9c0.4,0.7,0.8,1.3,1.1,2c0.9,1.4,1.7,2.8,2.6,4.4
		c0.6,0.9,1.1,1.9,1.7,2.8c0.7,1.1,1.3,2.2,2,3.2l0.8,1.2c0.5,0.9,1,1.6,1.5,2.5c0.8,1.2,1.5,2.4,2.3,3.6l1.1,1.8
		c0.2,0.3,0.3,0.5,0.5,0.8l0.4,0.7c1.4,2.2,2.8,4.3,4.2,6.4c0.4,0.6,0.9,1.2,1.2,1.8l0.3,0.5c0.9,1.2,1.7,2.6,2.5,3.7l1.8,2.7
		c0.7,0.9,1.3,2,2,2.8l1.8,2.6c0.5,0.7,0.9,1.3,1.4,2l0.3,0.4c0.6,0.8,1.1,1.7,1.7,2.5l7.9,10.8c0.7,0.9,1.2,1.6,1.3,1.8
		c2.2,2.8,5.5,4.6,9.1,4.6s6.9-1.7,9.1-4.6c10.5-14,63-85.3,63-120.6c0-2.2-0.1-4.5-0.4-6.9c-0.1-0.5-0.1-0.9-0.2-1.4l-0.1-0.7
		c-0.3-1.9-0.5-3.4-0.8-4.7c-0.2-0.9-0.3-1.5-0.5-2.4c-0.4-1.6-0.8-3.2-1.3-4.8c-0.1-0.2-0.1-0.5-0.2-0.7c-0.1-0.4-0.3-0.9-0.4-1.2
		c-0.8-2.3-1.6-4.4-2.5-6.4c-0.2-0.4-0.4-0.9-0.6-1.2l0,0c-0.8-1.5-1.5-3.2-2.5-4.8c-0.3-0.6-0.7-1.1-0.9-1.7l-0.3-0.5
		c-0.5-0.9-1-1.7-1.6-2.6c11.8-3.6,23.9-6.2,36.2-7.7c-9.9,20.9-12.7,40.3-8.4,57.9v0.1c3.4,12.9,10,24.9,19,34.7
		c6.8,8.4,11.3,14,11,23.1c-0.6,20.2-24.4,37.7-33.3,44.2c-12,8.6-25.3,15.1-39.6,19.1h-0.2c-14.1,4.7-27.5,9-32.7,24.4l-0.1,0.3
		c-4.8,19.5,3.1,40,20,50.9l0.3,0.2c10.1,5.4,22.1,6.5,33,3c10.5-2.5,21.3-2.9,32-1.5c13.5,1.9,25.2,3.6,30.1,10.4
		c2.7,3.7,2.7,7.6,2,16.8c-0.6,5.1-0.8,10.3-0.6,15.4c-1.9-3-4-5.8-6.4-8.4c-9.8-11.1-23.8-18-38.5-19h-0.7H201
		c-8.5,0.3-17,2.8-24.3,7.2l-3,1.5c-16.1,8-38.8,15.8-54.4,14c-17.3-1.9-29.8-16.6-38.2-26.4c-19.6-22.8-23.4-48.3-27.8-77.8v-0.1
		c-4.7-25.3-5-50.8-0.7-76.1c2.9-6,6.3-11.8,9.8-17.5c0.5,0.9,1,2,1.5,2.9C64.4,133.5,64.9,134.5,65.5,135.5z M345.4,380.2
		c-7.8-10.9-17.9-26-27.1-41.6c-6-10-11.5-20.5-16.1-31.1l-0.1-0.1c-3.3-6.8-5.3-14.1-5.9-21.6c0.1-27.1,22.2-49.2,49.3-49.2
		c1.5,0,3,0.1,4.6,0.2c10.4,0.9,20.5,5.3,28.3,12.4c10.4,9.3,16.4,22.7,16.4,36.7c0,4.1-1.6,14.1-12.2,35
		C371.4,341.3,359,361.2,345.4,380.2z M218.7,420.5c2.3-3.5,5.7-6.1,9.7-7.2l0.2-0.1c8-2.8,14.9-7.8,19.9-14.7
		c5.1-7.2,8-16.4,8.4-26.1c3.9,7.6,9.5,14.3,18.4,15.7c1,0.2,2.1,0.3,3,0.3c10.9,0,17.1-9,23.2-17.8c1.5-2.2,3.2-4.7,5.1-7.1
		c12.9,20.4,25.5,37.7,29.3,42.7l0.2,0.3c2.2,2.8,5.5,4.6,9.1,4.6c3.6,0,6.9-1.7,9.1-4.6c15.9-21.3,30.6-43.8,43.7-66.9
		c6.7,2.2,13.3,5.1,19.4,8.7c-37.4,62.1-105.4,100.5-178.2,100.5h-0.1l0,0c-6.6,0-13.3-0.3-19.8-0.9c-0.2-0.3-0.4-0.5-0.5-0.8
		C214.3,438.8,214.3,428.9,218.7,420.5z M409.1,160.9L409.1,160.9c-6.1-1.5-12.2-2.3-18.4-2.3c-5.6,0-11.3,0.7-16.7,1.9
		c-8.7,2-17.9,2-26.8,0.1c-17.9-3.9-30.9-6.7-37.6-17.6c-9.6-15.4-5.4-37.9,4.7-45.6c2.9-2,6.5-2.8,10.1-2.1l0.4,0.1
		c8.6,0.7,17.4-0.8,25.4-4.3c7.3-3.4,13.9-8.2,19.4-14c0.5,0.4,0.9,0.8,1.4,1.1c30.8,25.1,53.4,57.7,66,95.1
		C428.3,167.9,419,163.8,409.1,160.9z"/>
	<path class="st0" d="M117.8,39.1c-18.8,0-34.2,15.3-34.2,34.2s15.3,34.2,34.2,34.2S152,92.2,152,73.3S136.7,39.1,117.8,39.1z
		 M129.2,73.3c0,6.3-5.1,11.4-11.4,11.4c-6.3,0-11.4-5.1-11.4-11.4c0-6.3,5.1-11.4,11.4-11.4C124.1,61.9,129.2,67,129.2,73.3z"/>
	<path class="st0" d="M345.4,244c-18.8,0-34.2,15.3-34.2,34.2c0,18.9,15.3,34.2,34.2,34.2c18.9,0,34.2-15.3,34.2-34.2
		C379.6,259.3,364.3,244,345.4,244z M356.8,278.1c0,6.3-5.1,11.4-11.4,11.4c-6.3,0-11.4-5.1-11.4-11.4c0-6.3,5.1-11.4,11.4-11.4
		C351.7,266.8,356.8,271.9,356.8,278.1z"/>
</g>
</svg>
