<?xml version="1.0" encoding="utf-8"?>
<!-- Generator: Adobe Illustrator 21.0.0, SVG Export Plug-In . SVG Version: 6.00 Build 0)  -->
<svg version="1.1" id="Layer_1" xmlns="http://www.w3.org/2000/svg" xmlns:xlink="http://www.w3.org/1999/xlink" x="0px" y="0px"
	 viewBox="0 0 512 512" style="enable-background:new 0 0 512 512;" xml:space="preserve">
<style type="text/css">
	.st0{fill:#FFFFFF;}
</style>
<title></title>
<g id="Layer_2">
	<g id="Layer_3">
		<path class="st0" d="M433.4,256.3c0-2.2,0-4.3,0-6.5l72.6-23.7l-30.2-92l-72.6,23.7c-2.2-3.6-5-7.2-7.9-10.8l45.3-61.8l-78.3-57.5
			l-45.3,61.8c-4.3-1.4-8.6-2.9-12.9-4.3V9.2h-96.3v76.1c-4.3,1.4-8.6,2.9-12.9,4.3l-45.3-61.8L71.4,84.6l45.3,61.8
			c-2.9,3.6-5,7.2-7.9,10.8l-72.6-23.7L6,226.1l72.6,23.7c0,2.2,0,4.3,0,6.5c0,2.2,0,4.3,0,6.5L6,286.5l30.2,92l72.6-23.7
			c2.2,3.6,5,7.2,7.9,10.8l-45.3,61.8l78.3,56.8l45.3-61.8c4.3,1.4,8.6,2.9,12.9,4.3v76.1h97v-75.4c4.3-1.4,8.6-2.9,12.9-4.3
			l44.5,61.8l78.3-56.8l-45.3-61.8c2.9-3.6,5-7.2,7.9-10.8l72.6,23l30.2-92l-72.6-23.7C433.4,260.6,433.4,258.5,433.4,256.3z
			 M478.7,300.1l-16.5,51l-68.2-22.3l-4.3,7.2c-4.3,7.9-10.1,15.1-15.8,21.6l-5.7,6.5l42.4,58.2l-43.8,31.6l-42.4-58.2l-7.2,4.3
			c-7.9,3.6-16.5,6.5-25.1,7.9l-8.6,2.2v71.8h-53.9V410l-8.6-2.2c-8.6-2.2-17.2-5-25.1-7.9l-7.9-3.6l-42.4,58.2L101.5,423l42.4-58.2
			l-5.7-6.5c-5.7-6.5-10.8-13.6-15.8-21.6l-4.3-7.2l-68.2,22.3l-16.5-51.7l68.2-22.3l-0.7-8.6c0-4.3-0.7-8.6-0.7-13.6
			s0-9.3,0.7-13.6l0.7-8.6l-68.2-20.8l16.5-51l68.2,22.3l4.3-7.2c4.3-7.9,10.1-15.1,15.8-21.6l5.7-6.5l-42.4-58.2l43.8-31.6
			l42.4,58.2l7.9-3.6c7.9-3.6,16.5-6.5,25.9-7.9l8.6-2.2V31.5H284v71.8l8.6,2.2c8.6,2.2,17.2,5,25.1,7.9l7.9,3.6l42.4-58.2
			l43.8,31.6l-42.4,58.2l5.7,6.5c5.7,6.5,10.8,13.6,15.8,21.6l4.3,7.2l68.2-22.3l16.5,51l-68.2,22.3l0.7,8.6c0,4.3,0.7,8.6,0.7,13.6
			c0,5,0,9.3-0.7,13.6l-2.2,7.2L478.7,300.1z"/>
		<path class="st0" d="M256,161.5c-52.4,0-94.8,42.4-94.8,94.8s42.4,94.8,94.8,94.8s94.8-42.4,94.8-94.8S308.4,161.5,256,161.5z
			 M256,329.6c-40.2,0-73.3-33-73.3-73.3s33-73.3,73.3-73.3s73.3,33,73.3,73.3S296.2,329.6,256,329.6z"/>
	</g>
</g>
</svg>
