<?xml version="1.0" encoding="utf-8"?>
<!-- Generator: Adobe Illustrator 21.0.0, SVG Export Plug-In . SVG Version: 6.00 Build 0)  -->
<svg version="1.1" id="Layer_1" xmlns="http://www.w3.org/2000/svg" xmlns:xlink="http://www.w3.org/1999/xlink" x="0px" y="0px"
	 viewBox="0 0 512 512" style="enable-background:new 0 0 512 512;" xml:space="preserve">
<style type="text/css">
	.st0{fill:#FFFFFF;}
</style>
<g>
	<path class="st0" d="M404.8,63.5H105.2c-6.9,0-12.4,5.1-12.4,11.2v362.5c0,6.2,5.6,11.2,12.4,11.2h299.6c6.9,0,12.4-5.1,12.4-11.2
		V74.8C417.2,68.6,411.7,63.5,404.8,63.5z M205.1,86.1H305v11.2c0,6.2-5.4,11.2-11.9,11.2h-75.9c-6.6,0-11.9-5.1-11.9-11.2
		L205.1,86.1L205.1,86.1z M392.3,426H117.7V86.1h62.4v11.2c0,18.6,16.5,33.8,36.9,33.8h75.9c20.4,0,36.9-15.2,36.9-33.8V86.1h62.4
		L392.3,426L392.3,426z"/>
	<path class="st0" d="M329.9,179.3c-6.9,0-12.4,5.1-12.4,11.2v41.4h-25V208c0-6.2-5.6-11.2-12.4-11.2c-6.9,0-12.4,5.1-12.4,11.2
		v23.9h-25V165c0-6.2-5.6-11.2-12.4-11.2s-12.4,5.1-12.4,11.2v66.9h-25v-12.7c0-6.2-5.6-11.2-12.4-11.2c-6.9,0-12.4,5.1-12.4,11.2
		v12.7h-12.5c-6.9,0-12.4,5.1-12.4,11.2s5.6,11.2,12.4,11.2h199.7c6.9,0,12.4-5.1,12.4-11.2s-5.6-11.2-12.4-11.2h-12.5v-41.4
		C342.3,184.3,336.8,179.3,329.9,179.3z"/>
	<path class="st0" d="M354.9,277.1H155.1c-6.9,0-12.4,5.1-12.4,11.2c0,6.2,5.6,11.2,12.4,11.2h199.7c6.9,0,12.4-5.1,12.4-11.2
		S361.8,277.1,354.9,277.1z"/>
	<path class="st0" d="M354.9,322.2H155.1c-6.9,0-12.4,5.1-12.4,11.2c0,6.2,5.6,11.2,12.4,11.2h199.7c6.9,0,12.4-5.1,12.4-11.2
		S361.8,322.2,354.9,322.2z"/>
	<path class="st0" d="M242.5,367.3h-87.3c-6.9,0-12.4,5.1-12.4,11.2c0,6.2,5.6,11.2,12.4,11.2h87.3c6.9,0,12.4-5.1,12.4-11.2
		C255,372.4,249.4,367.3,242.5,367.3z"/>
</g>
</svg>
