<?xml version="1.0" encoding="utf-8"?>
<!-- Generator: Adobe Illustrator 21.0.0, SVG Export Plug-In . SVG Version: 6.00 Build 0)  -->
<svg version="1.1" id="Capa_1" xmlns="http://www.w3.org/2000/svg" xmlns:xlink="http://www.w3.org/1999/xlink" x="0px" y="0px"
	 viewBox="0 0 512 512" style="enable-background:new 0 0 512 512;" xml:space="preserve">
<style type="text/css">
	.st0{fill:#FFFFFF;}
</style>
<g>
	<path id="XMLID_1662_" class="st0" d="M389.8,6H122.3c-8.1,0-14.6,6.6-14.6,14.6v442.7c0,8.1,6.6,14.6,14.6,14.6h18.2v13.5
		c0,8.1,6.6,14.6,14.6,14.6s14.6-6.6,14.6-14.6v-13.5h168.4v13.5c0,8.1,6.6,14.6,14.6,14.6s14.6-6.6,14.6-14.6v-13.5h22.3
		c8.1,0,14.6-6.6,14.6-14.6V20.6C404.4,12.6,397.9,6,389.8,6z M375.1,448.7H137V193.9h238.1V448.7z M375.1,164.6H137V35.3h238.1
		V164.6z"/>
	<path id="XMLID_1661_" class="st0" d="M180.9,145.7c8.1,0,14.6-6.6,14.6-14.6V66.2c0-8.1-6.6-14.6-14.6-14.6
		c-8,0-14.6,6.6-14.6,14.6v64.8C166.3,139.2,172.8,145.7,180.9,145.7z"/>
	<path id="XMLID_1618_" class="st0" d="M180.9,417c8.1,0,14.6-6.6,14.6-14.6V226.2c0-8.1-6.6-14.6-14.6-14.6
		c-8,0-14.6,6.6-14.6,14.6v176.2C166.3,410.4,172.8,417,180.9,417z"/>
</g>
</svg>
