<?xml version="1.0" encoding="utf-8"?>
<!-- Generator: Adobe Illustrator 21.0.0, SVG Export Plug-In . SVG Version: 6.00 Build 0)  -->
<svg version="1.1" id="Capa_1" xmlns="http://www.w3.org/2000/svg" xmlns:xlink="http://www.w3.org/1999/xlink" x="0px" y="0px"
	 viewBox="0 0 512 512" style="enable-background:new 0 0 512 512;" xml:space="preserve">
<style type="text/css">
	.st0{fill:#5B5D7A;}
</style>
<g>
	<g>
		<g>
			<path class="st0" d="M346.4,60.2c-9.4-3-19.1,4-19.1,14v86.5c0,5.5,3,10.5,7.7,13c38.1,20.9,61.7,60.8,61.7,104.2
				c0,65.5-53.3,118.8-118.8,118.8c-43.4,0-83.3-23.6-104.2-61.7c-2.5-4.6-7.4-7.7-13-7.7H74.2c-9.7,0-17,9.5-14,19.1
				C89,437.8,174.6,506,277.9,506C404,506,506,404,506,277.9C506,174.7,437.9,89,346.4,60.2z M263.2,476.2
				c-75.7-5.5-139.2-53.2-168-119.6h57.2c24.4,38.9,65.4,64.1,110.8,68.6V476.2z M356.6,152.5V95.3c66.4,28.8,114.1,92.3,119.6,168
				h-51C420.7,217.8,395.4,176.9,356.6,152.5z M292.5,476.2v-50.9c70-6.9,125.8-62.7,132.7-132.7h50.9
				C469,390.5,390.5,469,292.5,476.2z"/>
		</g>
	</g>
	<g>
		<g>
			<path class="st0" d="M277.9,6C127.6,6,6,127.6,6,277.9c0,8.1,6.6,14.6,14.6,14.6h257.2c8.1,0,14.6-6.6,14.6-14.6V20.6
				C292.5,12.6,286,6,277.9,6z M263.2,263.2H35.7C43,141,140.8,43,263.2,35.7V263.2z"/>
		</g>
	</g>
</g>
</svg>
