<?xml version="1.0" encoding="utf-8"?>
<!-- Generator: Adobe Illustrator 21.0.0, SVG Export Plug-In . SVG Version: 6.00 Build 0)  -->
<svg version="1.1" id="Layer_1" xmlns="http://www.w3.org/2000/svg" xmlns:xlink="http://www.w3.org/1999/xlink" x="0px" y="0px"
	 viewBox="0 0 512 512" style="enable-background:new 0 0 512 512;" xml:space="preserve">
<style type="text/css">
	.st0{fill:#5B5D7A;}
</style>
<g>
	<path class="st0" d="M77,292.3c0.2-1.3,0.4-2.6,0.6-3.8c0.2-1.1,0.4-2.1,0.5-3.2c0.8-4.8,1.6-9.3,0.3-12.8
		c1.2-6.9,0.7-14.8,0.3-21.8c-0.5-8-1.2-14.5-3.3-19.4c0.6-1.2,0.7-2.3,0.7-3.1c0.2-5.5-1.8-11.7-3.6-17.2c-0.3-0.9-0.6-1.8-0.9-2.7
		c-0.8-2.4-1.5-4.8-2.3-7.1c-1.2-3.6-2.4-7.3-3.5-11c-0.4-1.4-0.9-2.8-1.3-4.3c-2.3-7.5-4.8-15.3-5.2-24.5c0-1-0.1-2.1-0.2-3.2
		c-0.2-2.9-0.4-5.9,0-8.1c0.1-0.3,0.2-0.5,0.5-1c0.5-0.7,1.1-1.6,1.3-3c0.2-2.2-0.7-4.1-1.5-5.7c-0.6-1.2-1.1-2.3-1.1-3.4
		c0-0.5,0.2-0.9,0.6-1.5c0.6-0.9,1.3-2.2,1-4c-1.1-5.8-9.3-5.6-13.7-5.5h-0.7c-1.4,0-2.7,0-4,0c-1,0-2.1,0-3.4,0
		c-4.5-0.1-12.2-0.1-13.1,5.3c-0.4,2.4,0.6,3.9,1.3,4.8c0.4,0.5,0.5,0.7,0.5,0.9c0,0.9-0.6,2-1.2,3.2c-0.7,1.4-1.6,3.1-1.6,4.9
		c0,1.8,0.7,3,1.3,3.8c0.3,0.5,0.5,0.8,0.6,1.1c0.4,2.2,0.2,5.2,0,8.1c-0.1,1-0.2,2-0.2,3c-0.2,3.2-0.6,6.7-1.4,10.3
		c-2.6,12.4-6.2,23.1-10,34.4l-0.7,2.2c-0.2,0.6-0.4,1.3-0.6,1.9c-2,5.8-4.2,12.3-4,18c0,1.1,0.3,2.1,0.8,3.2
		c-2.1,4.9-2.6,10.8-3,17.2c-0.1,0.8-0.1,1.6-0.2,2.3c-0.5,6.8-0.9,14.8,0.1,21.8c0,0.1-0.1,0.2-0.1,0.2c-0.3,0.7-0.6,1.6-0.7,3.1
		c-0.1,2.7,0.4,5.7,0.9,8.6c0.2,0.9,0.3,1.9,0.5,2.9c0.3,1.8,0.6,3.7,0.9,5.5c2.6,16.2,5.5,34.6,2.4,51.2c-0.5,2.9-1.4,5.7-2.2,8.4
		C7.2,356.8,6,361,6,365.2v4.3c-0.4,12.9,10.7,14.3,18.8,15.4c5.9,0.8,11.7,1.2,17.6,1.2c5.3,0,10.7-0.3,16.3-1
		c5.3-0.6,11.8-1.4,15.5-3.7c8.4-5.3,5-21.4,2.2-30.6C70.7,332.6,74.2,310.2,77,292.3z M12,292.2c-0.3-1.9-0.6-3.7-0.9-5.5
		c-0.1-1-0.3-2-0.5-2.9c-0.5-2.9-1-5.5-0.9-7.9c0-0.9,0.2-1.3,0.4-1.9c0.1-0.2,0.2-0.5,0.3-0.8l0.1-0.4l-0.1-0.4
		c-1.1-6.8-0.7-14.7-0.2-21.5c0.1-0.8,0.1-1.6,0.2-2.4c0.4-6.3,0.9-12.3,3-16.6L14,231l-0.5-0.9c-0.5-0.8-0.7-1.5-0.7-2.3
		c-0.1-5.1,2-11.3,3.8-16.7c0.2-0.7,0.4-1.3,0.7-1.9L18,207c3.8-11.4,7.5-22.2,10.1-34.9c0.8-3.8,1.3-7.4,1.4-10.8
		c0-0.9,0.1-1.9,0.2-2.9c0.2-3.1,0.5-6.4,0-9.1c-0.2-1-0.7-1.8-1.1-2.4c-0.5-0.7-0.7-1.1-0.7-1.8c0-0.9,0.6-2,1.2-3.2
		c0.8-1.5,1.6-3.1,1.6-5c0-1.4-0.7-2.3-1.2-3c-0.5-0.7-0.8-1.1-0.6-2c0.4-2,4.8-2.3,8-2.3c0.5,0,1,0,1.4,0c1.3,0,2.3,0,3.4,0
		c1.4,0,2.7,0,4.1,0h0.7c3.1-0.1,9.4-0.2,9.9,2.5c0.1,0.4,0,0.6-0.5,1.4s-1.1,1.8-1.2,3.4c0,1.9,0.8,3.6,1.5,5.1
		c0.6,1.3,1.2,2.6,1.1,3.7c0,0.4-0.2,0.7-0.6,1.2c-0.4,0.6-0.9,1.3-1.2,2.4c-0.5,2.7-0.3,5.9,0,9.1c0.1,1.1,0.2,2.1,0.2,3.1
		c0.4,9.7,2.9,17.7,5.3,25.5c0.4,1.4,0.9,2.8,1.3,4.2c1.1,3.7,2.3,7.4,3.5,11c0.8,2.3,1.5,4.7,2.3,7.1c0.3,0.9,0.6,1.8,0.9,2.7
		c1.7,5.2,3.6,11.1,3.4,15.9c0,1-0.1,1.4-0.5,1.8l-0.9,0.9l0.6,1.1c2.3,4.7,3,11.9,3.4,19c0.4,7,0.9,14.9-0.4,21.4l-0.1,0.6l0.2,0.5
		c1.1,2.6,0.4,7-0.4,11.2c-0.2,1.1-0.4,2.2-0.6,3.3c-0.2,1.2-0.4,2.5-0.6,3.8c-2.9,18.4-6.4,41.2-0.5,60.3c0.6,2,1.1,3.9,1.6,5.8
		H10.9c0.4-1.4,0.8-2.9,1.2-4.3c0.8-2.8,1.7-5.8,2.3-8.8C17.6,327.5,14.6,308.7,12,292.2z"/>
	<path class="st0" d="M183.6,292.3c0.2-1.3,0.4-2.6,0.6-3.8c0.2-1.1,0.4-2.1,0.5-3.2c0.8-4.8,1.6-9.3,0.3-12.8
		c1.2-6.9,0.7-14.8,0.3-21.8c-0.5-8-1.2-14.5-3.3-19.4c0.6-1.2,0.7-2.3,0.7-3.1c0.2-5.5-1.8-11.7-3.6-17.2c-0.3-0.9-0.6-1.8-0.9-2.7
		c-0.8-2.4-1.5-4.8-2.3-7.1c-1.2-3.6-2.4-7.3-3.5-11c-0.4-1.4-0.9-2.8-1.3-4.3c-2.3-7.5-4.8-15.3-5.2-24.5c0-1-0.1-2.1-0.2-3.2
		c-0.2-2.9-0.4-5.9,0-8.1c0.1-0.3,0.2-0.5,0.5-1c0.5-0.7,1.1-1.6,1.3-3c0.2-2.2-0.7-4.1-1.5-5.7c-0.6-1.2-1.1-2.3-1.1-3.4
		c0-0.5,0.2-0.9,0.6-1.5c0.6-0.9,1.3-2.2,1-4c-1.1-5.8-9.3-5.6-13.7-5.5h-0.7c-1.4,0-2.7,0-4,0c-1,0-2.1,0-3.4,0
		c-4.5-0.1-12.2-0.1-13.1,5.3c-0.4,2.4,0.6,3.9,1.3,4.8c0.4,0.5,0.5,0.7,0.5,0.9c0,0.9-0.6,2-1.2,3.2c-0.7,1.4-1.6,3.1-1.6,4.9
		c0,1.8,0.7,3,1.3,3.8c0.3,0.5,0.5,0.8,0.6,1.1c0.4,2.2,0.2,5.2,0,8.1c-0.1,1-0.2,2-0.2,3c-0.2,3.2-0.6,6.7-1.4,10.3
		c-2.6,12.4-6.2,23.1-10,34.4l-0.7,2.2c-0.2,0.6-0.4,1.3-0.6,1.9c-2,5.8-4.2,12.3-4,18c0,1.1,0.3,2.1,0.8,3.2
		c-2.1,4.9-2.6,10.8-3,17.2c-0.1,0.8-0.1,1.6-0.2,2.3c-0.5,6.8-0.9,14.8,0.1,21.8c0,0.1-0.1,0.2-0.1,0.2c-0.3,0.7-0.6,1.6-0.7,3.1
		c-0.1,2.7,0.4,5.7,0.9,8.6c0.2,0.9,0.3,1.9,0.5,2.9c0.3,1.8,0.6,3.7,0.9,5.5c2.6,16.2,5.5,34.6,2.4,51.2c-0.5,2.9-1.4,5.7-2.2,8.4
		c-1.3,4.4-2.5,8.6-2.5,12.8v4.3c-0.4,12.9,10.7,14.3,18.8,15.4c5.9,0.8,11.7,1.2,17.6,1.2c5.3,0,10.7-0.3,16.3-1
		c5.3-0.6,11.8-1.4,15.5-3.7c8.4-5.3,5-21.4,2.2-30.6C177.3,332.6,180.8,310.2,183.6,292.3z M118.6,292.2c-0.3-1.9-0.6-3.7-0.9-5.5
		c-0.1-1-0.3-2-0.5-2.9c-0.5-2.9-1-5.5-0.9-7.9c0-0.9,0.2-1.3,0.4-1.9c0.1-0.2,0.2-0.5,0.3-0.8l0.1-0.4l-0.1-0.4
		c-1.1-6.8-0.7-14.7-0.2-21.5c0.1-0.8,0.1-1.6,0.2-2.4c0.4-6.3,0.9-12.3,3-16.6l0.5-0.9l-0.5-0.9c-0.5-0.8-0.7-1.5-0.7-2.3
		c-0.1-5.1,2-11.3,3.8-16.7c0.2-0.7,0.4-1.3,0.7-1.9l0.7-2.2c3.8-11.4,7.5-22.2,10.1-34.9c0.8-3.8,1.3-7.4,1.4-10.8
		c0-0.9,0.1-1.9,0.2-2.9c0.2-3.1,0.5-6.4,0-9.1c-0.2-1-0.7-1.8-1.1-2.4c-0.5-0.7-0.7-1.1-0.7-1.8c0-0.9,0.6-2,1.2-3.2
		c0.8-1.5,1.6-3.1,1.6-5c0-1.4-0.7-2.3-1.2-3c-0.5-0.7-0.8-1.1-0.6-2c0.4-2,4.8-2.3,8-2.3c0.5,0,1,0,1.4,0c1.3,0,2.3,0,3.4,0
		c1.4,0,2.7,0,4.1,0h0.7c3.1-0.1,9.4-0.2,9.9,2.5c0.1,0.4,0,0.6-0.5,1.4c-0.5,0.8-1.1,1.8-1.2,3.4c0,1.9,0.8,3.6,1.5,5.1
		c0.6,1.3,1.2,2.6,1.1,3.7c0,0.4-0.2,0.7-0.6,1.2c-0.4,0.6-0.9,1.3-1.2,2.4c-0.5,2.7-0.3,5.9,0,9.1c0.1,1.1,0.2,2.1,0.2,3.1
		c0.4,9.7,2.9,17.7,5.3,25.5c0.4,1.4,0.9,2.8,1.3,4.2c1.1,3.7,2.3,7.4,3.5,11c0.8,2.3,1.5,4.7,2.3,7.1c0.3,0.9,0.6,1.8,0.9,2.7
		c1.7,5.2,3.6,11.1,3.4,15.9c0,1-0.1,1.4-0.5,1.8l-0.9,0.9l0.6,1.1c2.3,4.7,3,11.9,3.4,19c0.4,7,0.9,14.9-0.4,21.4l-0.1,0.6l0.2,0.5
		c1.1,2.6,0.4,7-0.4,11.2c-0.2,1.1-0.4,2.2-0.6,3.3c-0.2,1.2-0.4,2.5-0.6,3.8c-0.7,4.5-1.4,9.2-2.1,14.1h-57.2
		C120,301.2,119.3,296.6,118.6,292.2z"/>
	<path class="st0" d="M289.6,350.9c-5.6-18.3-2.1-40.7,0.7-58.6c0.2-1.3,0.4-2.6,0.6-3.8c0.2-1.1,0.4-2.1,0.5-3.2
		c0.8-4.8,1.6-9.3,0.3-12.8c1.2-6.9,0.7-14.8,0.3-21.8c-0.5-8-1.2-14.5-3.3-19.4c0.6-1.2,0.7-2.3,0.7-3.1c0.2-5.5-1.8-11.7-3.6-17.2
		c-0.3-0.9-0.6-1.8-0.9-2.7c-0.8-2.4-1.5-4.8-2.3-7.1c-1.2-3.6-2.4-7.3-3.5-11c-0.4-1.4-0.9-2.8-1.3-4.3c-2.3-7.5-4.8-15.3-5.2-24.5
		c0-1-0.1-2.1-0.2-3.2c-0.2-2.9-0.4-5.9,0-8.1c0.1-0.3,0.2-0.5,0.5-1c0.5-0.7,1.1-1.6,1.3-3c0.2-2.2-0.7-4.1-1.5-5.7
		c-0.6-1.2-1.1-2.3-1.1-3.4c0-0.5,0.2-0.9,0.6-1.5c0.6-0.9,1.3-2.2,1-4c-1.1-5.8-9.3-5.6-13.7-5.5h-0.7c-1.4,0-2.7,0-4,0
		c-1,0-2.1,0-3.4,0c-4.5-0.1-12.2-0.1-13.1,5.3c-0.4,2.4,0.6,3.9,1.3,4.8c0.4,0.5,0.5,0.7,0.5,0.9c0,0.9-0.6,2-1.2,3.2
		c-0.7,1.4-1.6,3.1-1.6,4.9c0,1.8,0.7,3,1.3,3.8c0.3,0.5,0.5,0.8,0.6,1.1c0.4,2.2,0.2,5.2,0,8.1c-0.1,1-0.2,2-0.2,3
		c-0.2,3.2-0.6,6.7-1.4,10.3c-2.6,12.4-6.2,23.1-10,34.4l-0.7,2.2c-0.2,0.6-0.4,1.3-0.6,1.9c-2,5.8-4.2,12.3-4,18
		c0,1.1,0.3,2.1,0.8,3.2c-2.1,4.9-2.6,10.8-3,17.2c-0.1,0.8-0.1,1.6-0.2,2.3c-0.5,6.8-0.9,14.8,0.1,21.8c0,0.1-0.1,0.2-0.1,0.2
		c-0.3,0.7-0.6,1.6-0.7,3.1c-0.1,2.7,0.4,5.7,0.9,8.6c0.2,0.9,0.3,1.9,0.5,2.9c0.3,1.8,0.6,3.7,0.9,5.5c2.6,16.2,5.5,34.6,2.4,51.2
		c-0.5,2.9-1.4,5.7-2.2,8.4c-1.3,4.4-2.5,8.6-2.5,12.8v4.3c-0.4,12.9,10.7,14.3,18.8,15.4c5.9,0.8,11.7,1.2,17.6,1.2
		c5.3,0,10.7-0.3,16.3-1c5.3-0.6,11.8-1.4,15.5-3.7C295.9,376.3,292.4,360.1,289.6,350.9L289.6,350.9z M223.8,248.5
		c0.4-6.3,0.9-12.3,3-16.6l0.5-0.9l-0.5-0.9c-0.5-0.8-0.7-1.5-0.7-2.3c-0.1-5.1,2-11.3,3.8-16.7c0.2-0.7,0.4-1.3,0.7-1.9l0.7-2.2
		c3.8-11.4,7.5-22.2,10.1-34.9c0.8-3.8,1.3-7.4,1.4-10.8c0-0.9,0.1-1.9,0.2-2.9c0.2-3.1,0.5-6.4,0-9.1c-0.2-1-0.7-1.8-1.1-2.4
		c-0.5-0.7-0.7-1.1-0.7-1.8c0-0.9,0.6-2,1.2-3.2c0.8-1.5,1.6-3.1,1.6-5c0-1.4-0.7-2.3-1.2-3c-0.5-0.7-0.8-1.1-0.6-2
		c0.4-2,4.8-2.3,8-2.3c0.5,0,1,0,1.4,0c1.3,0,2.3,0,3.4,0c1.4,0,2.7,0,4.1,0h0.7c3.1-0.1,9.4-0.2,9.9,2.5c0.1,0.4,0,0.6-0.5,1.4
		c-0.5,0.8-1.1,1.8-1.2,3.4c0,1.9,0.8,3.6,1.5,5.1c0.6,1.3,1.2,2.6,1.1,3.7c0,0.4-0.2,0.7-0.6,1.2c-0.4,0.6-0.9,1.3-1.2,2.4
		c-0.5,2.7-0.3,5.9,0,9.1c0.1,1.1,0.2,2.1,0.2,3.1c0.4,9.7,2.9,17.7,5.3,25.5c0.4,1.4,0.9,2.8,1.3,4.2c1.1,3.7,2.3,7.4,3.5,11
		c0.8,2.3,1.5,4.7,2.3,7.1c0.3,0.9,0.6,1.8,0.9,2.7c1.7,5.2,3.6,11.1,3.4,15.9c0,1-0.1,1.4-0.5,1.8l-0.9,0.9l0.6,1.1
		c2.3,4.7,3,11.9,3.4,19c0,0.6,0.1,1.2,0.1,1.8h-64.9c0-0.6,0.1-1.2,0.1-1.7C223.7,250.1,223.7,249.3,223.8,248.5z"/>
	<path class="st0" d="M396.2,350.9c-5.6-18.3-2.1-40.7,0.7-58.6c0.2-1.3,0.4-2.6,0.6-3.8c0.2-1.1,0.4-2.1,0.5-3.2
		c0.8-4.8,1.6-9.3,0.3-12.8c1.2-6.9,0.7-14.8,0.3-21.8c-0.5-8-1.2-14.5-3.3-19.4c0.6-1.2,0.7-2.3,0.7-3.1c0.2-5.5-1.8-11.7-3.6-17.2
		c-0.3-0.9-0.6-1.8-0.9-2.7c-0.8-2.4-1.5-4.8-2.3-7.1c-1.2-3.6-2.4-7.3-3.5-11c-0.4-1.4-0.9-2.8-1.3-4.3c-2.3-7.5-4.8-15.3-5.2-24.5
		c0-1-0.1-2.1-0.2-3.2c-0.2-2.9-0.4-5.9,0-8.1c0.1-0.3,0.2-0.5,0.5-1c0.5-0.7,1.1-1.6,1.3-3c0.2-2.2-0.7-4.1-1.5-5.7
		c-0.6-1.2-1.1-2.3-1.1-3.4c0-0.5,0.2-0.9,0.6-1.5c0.6-0.9,1.3-2.2,1-4c-1.1-5.8-9.3-5.6-13.7-5.5h-0.7c-1.4,0-2.7,0-4,0
		c-1,0-2.1,0-3.4,0c-4.5-0.1-12.2-0.1-13.1,5.3c-0.4,2.4,0.6,3.9,1.3,4.8c0.4,0.5,0.5,0.7,0.5,0.9c0,0.9-0.6,2-1.2,3.2
		c-0.7,1.4-1.6,3.1-1.6,4.9c0,1.8,0.7,3,1.3,3.8c0.3,0.5,0.5,0.8,0.6,1.1c0.4,2.2,0.2,5.2,0,8.1c-0.1,1-0.2,2-0.2,3
		c-0.2,3.2-0.6,6.7-1.4,10.3c-2.6,12.4-6.2,23.1-10,34.4l-0.7,2.2c-0.2,0.6-0.4,1.3-0.6,1.9c-2,5.8-4.2,12.3-4,18
		c0,1.1,0.3,2.1,0.8,3.2c-2.1,4.9-2.6,10.9-3,17.2c-0.1,0.8-0.1,1.6-0.2,2.3c-0.5,6.8-0.9,14.8,0.1,21.8c0,0.1-0.1,0.2-0.1,0.2
		c-0.3,0.7-0.6,1.6-0.7,3.1c-0.1,2.7,0.4,5.7,0.9,8.6c0.2,0.9,0.3,1.9,0.5,2.9c0.3,1.8,0.6,3.7,0.9,5.5c2.6,16.2,5.5,34.6,2.4,51.2
		c-0.5,2.9-1.4,5.7-2.2,8.4c-1.3,4.4-2.5,8.6-2.5,12.8v4.3c-0.4,12.9,10.7,14.3,18.8,15.4c5.9,0.8,11.7,1.2,17.6,1.2
		c5.3,0,10.7-0.3,16.3-1c5.3-0.6,11.8-1.4,15.5-3.7C402.5,376.3,399,360.1,396.2,350.9L396.2,350.9z M347.9,172.1
		c0.8-3.8,1.3-7.4,1.4-10.8c0-0.9,0.1-1.9,0.2-2.9c0.2-3.1,0.5-6.4,0-9.1c-0.2-1-0.7-1.8-1.1-2.4c-0.5-0.7-0.7-1.1-0.7-1.8
		c0-0.9,0.6-2,1.2-3.2c0.8-1.5,1.6-3.1,1.6-5c0-1.4-0.7-2.3-1.2-3c-0.5-0.7-0.8-1.1-0.6-2c0.4-2,4.8-2.3,8-2.3c0.5,0,1,0,1.4,0
		c1.3,0,2.3,0,3.4,0c1.4,0,2.7,0,4.1,0h0.7c3-0.1,9.4-0.2,9.9,2.5c0.1,0.4,0,0.6-0.5,1.4s-1.1,1.8-1.2,3.4c0,1.9,0.8,3.6,1.5,5.1
		c0.6,1.3,1.2,2.6,1.1,3.7c0,0.4-0.2,0.7-0.6,1.2c-0.4,0.6-0.9,1.3-1.2,2.4c-0.5,2.7-0.3,5.9,0,9.1c0.1,1.1,0.2,2.1,0.2,3.1
		c0.4,9.7,2.9,17.7,5.3,25.5c0.4,1.4,0.9,2.8,1.3,4.2c0.9,3.1,2,6.3,3,9.4H340C343,191.5,345.8,182.4,347.9,172.1z"/>
	<path class="st0" d="M502.8,350.9L502.8,350.9c-5.6-18.3-2.1-40.7,0.7-58.6c0.2-1.3,0.4-2.6,0.6-3.8c0.2-1.1,0.4-2.1,0.5-3.2
		c0.8-4.8,1.6-9.3,0.3-12.8c1.2-6.9,0.7-14.8,0.3-21.8c-0.5-8-1.2-14.5-3.3-19.4c0.6-1.2,0.7-2.3,0.7-3.1c0.2-5.5-1.8-11.7-3.6-17.2
		c-0.3-0.9-0.6-1.8-0.9-2.7c-0.8-2.4-1.5-4.8-2.3-7.1c-1.2-3.6-2.4-7.3-3.5-11c-0.4-1.4-0.9-2.8-1.3-4.3c-2.3-7.5-4.8-15.3-5.2-24.5
		c0-1-0.1-2.1-0.2-3.2c-0.2-2.9-0.4-5.9,0-8.1c0.1-0.3,0.2-0.5,0.5-1c0.5-0.7,1.1-1.6,1.3-3c0.2-2.2-0.7-4.1-1.5-5.7
		c-0.6-1.2-1.1-2.3-1.1-3.4c0-0.5,0.2-0.9,0.6-1.5c0.6-0.9,1.3-2.2,1-4c-1.1-5.8-9.3-5.6-13.7-5.5H472c-1.4,0-2.7,0-4,0
		c-1,0-2.1,0-3.4,0c-4.5-0.1-12.2-0.1-13.1,5.3c-0.4,2.4,0.6,3.9,1.3,4.8c0.4,0.5,0.5,0.7,0.5,0.9c0,0.9-0.6,2-1.2,3.2
		c-0.7,1.4-1.6,3.1-1.6,4.9c0,1.8,0.7,3,1.3,3.8c0.3,0.5,0.5,0.8,0.6,1.1c0.4,2.2,0.2,5.2,0,8.1c-0.1,1-0.2,2-0.2,3
		c-0.2,3.2-0.6,6.7-1.4,10.3c-2.6,12.4-6.2,23.1-10,34.4l-0.7,2.2c-0.2,0.6-0.4,1.3-0.6,1.9c-2,5.8-4.2,12.3-4,18
		c0,1.1,0.3,2.1,0.8,3.2c-2.1,4.9-2.6,10.8-3,17.2c-0.1,0.8-0.1,1.6-0.2,2.3c-0.5,6.8-0.9,14.8,0.1,21.8c0,0.1-0.1,0.2-0.1,0.2
		c-0.3,0.7-0.6,1.6-0.7,3.1c-0.1,2.7,0.4,5.7,0.9,8.6c0.2,0.9,0.3,1.9,0.5,2.9c0.3,1.8,0.6,3.7,0.9,5.5c2.6,16.2,5.5,34.6,2.4,51.2
		c-0.5,2.9-1.4,5.7-2.2,8.4c-1.3,4.4-2.5,8.6-2.5,12.8v4.3c-0.4,12.9,10.7,14.3,18.8,15.4c5.9,0.8,11.7,1.2,17.6,1.2
		c5.3,0,10.7-0.3,16.3-1c5.3-0.6,11.8-1.4,15.5-3.7C509,376.3,505.7,360.1,502.8,350.9z"/>
</g>
</svg>
