<?xml version="1.0" encoding="utf-8"?>
<!-- Generator: Adobe Illustrator 21.0.0, SVG Export Plug-In . SVG Version: 6.00 Build 0)  -->
<svg version="1.1" id="Capa_1" xmlns="http://www.w3.org/2000/svg" xmlns:xlink="http://www.w3.org/1999/xlink" x="0px" y="0px"
	 viewBox="0 0 512 512" style="enable-background:new 0 0 512 512;" xml:space="preserve">
<style type="text/css">
	.st0{fill:#E61D2B;}
	.st1{fill:#5B5D7A;}
</style>
<path d="M-502.6,259.8C-472.8,333-402,377.5-327.4,377.5c23.7,0,47.8-4.5,71.1-14c96.5-39.4,143-149.9,103.6-246.4
	C-192,20.6-302.5-25.9-399,13.4C-495.5,52.8-542,163.3-502.6,259.8z M-415.4,335.4l-2.3,2.4l-2.8-1.8
	c-27.6-17.2-49.7-41.9-63.9-71.2l-1.9-3.8l70.9-28.9l1.6,3.6c9.5,21.8,20.8,42.8,33.5,62.6l2,3l-2.8,2.3
	C-393.2,313.3-404.7,324-415.4,335.4z M-318.1,192.5l70.2-28.6l1.5,3.8c7.9,20.8,14.1,42.3,18.6,63.9l0.8,4.1l-4.1,0.7
	c-19.8,3.4-39.4,8.6-58.5,15.7l-3.6,1.3L-318.1,192.5z M-306.8,258.9l-3.5,1.6c-18.6,8.3-36.4,18.3-52.8,29.7l-3.4,2.4l-2.2-3.5
	c-11.9-18.6-22.4-38.3-31.3-58.7l-1.6-3.8l70.2-28.6L-306.8,258.9z M-323.6,178.9l-24.8-60.9l3.5-1.6c18.6-8.3,36.4-18.3,52.8-29.7
	l3.4-2.4l2.2,3.5c11.9,18.6,22.4,38.3,31.3,58.7l1.6,3.8L-323.6,178.9z M-337.2,184.5l-70.2,28.6l-1.5-3.8
	c-7.9-20.8-14.1-42.3-18.6-63.9l-0.8-4.1l4.1-0.7c19.8-3.4,39.5-8.6,58.5-15.7l3.6-1.3L-337.2,184.5z M-339.2,362.5
	c-20.7-1.4-40.9-6.5-60.1-15.1l-5.2-2.3l4-4.1c8.6-8.8,17.7-17.2,27.2-24.9l3.3-2.7l2.5,3.4c9.7,13.5,20.4,26.6,31.6,39l6.7,7.4
	L-339.2,362.5z M-272.6,353.9c-11.5,3.8-23.3,6.5-35.2,7.9l-1.9,0.2l-1.4-1.4c-16.3-16.3-31.4-34-44.8-52.7l-2.4-3.3l3.3-2.3
	c15.6-10.8,32.4-20.3,50-28.2l3.8-1.7l32.7,80.2L-272.6,353.9z M-219,323.1v1.9l-1.5,1.2c-9.5,7.3-19.8,13.7-30.7,19l-3.8,1.9
	l-32.7-80.2l3.9-1.4c18.1-6.6,36.8-11.6,55.5-14.8l4-0.7l0.6,4C-220.3,276.8-218.7,300-219,323.1z M-165.2,252
	c-7.7,19.6-18.6,37.3-32.4,52.8l-6.6,7.4l-0.4-9.9c-0.6-16.7-2.2-33.5-4.6-50l-0.6-4.2l4.2-0.4c12.2-1.1,24.5-1.5,36.8-1.2l5.7,0.2
	L-165.2,252z M-162.1,133.5c10.3,31,11.8,64,4.1,95.6l-0.8,3.2l-3.3-0.2c-15.6-0.7-31.4-0.3-46.8,1.2l-3.6,0.4l-0.7-3.5
	c-4.7-23-11.4-46-19.8-68.2l-1.4-3.6l70.9-28.9L-162.1,133.5z M-239.9,41.5l2.3-2.4l2.8,1.8c27.6,17.2,49.7,41.9,63.9,71.2l1.9,3.8
	l-70.9,28.9l-1.6-3.6c-9.5-21.8-20.8-42.8-33.5-62.6l-2-3l2.8-2.3C-262.1,63.6-250.5,52.9-239.9,41.5z M-316.1,14.4
	c20.7,1.4,40.9,6.5,60.1,15.1l5.2,2.3l-4,4.1c-8.6,8.8-17.7,17.2-27.2,24.9l-3.3,2.7l-2.5-3.4c-9.7-13.5-20.4-26.6-31.6-39l-6.7-7.4
	L-316.1,14.4z M-382.6,23c11.5-3.8,23.3-6.5,35.2-7.9l1.9-0.2l1.4,1.4c16.3,16.3,31.4,34,44.8,52.7l2.4,3.3l-3.3,2.3
	c-15.6,10.8-32.4,20.3-50,28.2l-3.8,1.7l-32.7-80.2L-382.6,23z M-436.3,53.9V52l1.5-1.2c9.5-7.3,19.8-13.7,30.7-19l3.8-1.9
	l32.7,80.2l-3.9,1.4c-18.1,6.6-36.7,11.6-55.5,14.8l-4,0.7l-0.6-4C-434.9,100.2-436.6,76.9-436.3,53.9z M-442.1,146.8
	c4.7,23,11.4,46,19.8,68.2l1.4,3.6l-70.9,28.9l-1.4-4c-10.3-31-11.8-64-4.1-95.6l0.8-3.2l3.3,0.2c15.6,0.7,31.4,0.3,46.8-1.2
	l3.6-0.4L-442.1,146.8z M-451,64.7l0.4,9.9c0.6,16.7,2.2,33.5,4.6,50l0.6,4.2l-4.2,0.4c-9.4,0.9-18.9,1.3-28.5,1.3
	c-2.8,0-5.6,0-8.4-0.1l-5.7-0.2l2.1-5.3c7.7-19.6,18.6-37.3,32.4-52.8L-451,64.7z"/>
<path class="st0" d="M-406.4,294.9c-5.1-16.6-1.5-36.5,1-52.6c0.7-4.7,2.1-9.8,0.7-12.9c1.1-5.5,0.7-12.1,0.3-18.2
	c-0.4-6-0.9-12.2-3-16.4c0.7-0.8,0.8-1.6,0.8-2.5c0.2-5-2-11-3.6-16c-1.6-5.1-3.3-10-4.8-15.1c-2.3-7.6-5-15-5.5-24.3
	c-0.1-3.2-0.7-7.1-0.2-9.8c0.2-1.2,1.3-1.7,1.5-3.1c0.3-2.7-2.2-4.9-2.2-7.4c0-1.9,1.7-2.5,1.3-4.3c-0.7-3.8-7.2-3.4-10.4-3.3
	c-0.9,0-1.7,0-2.5,0c-0.6,0-1.6,0-2.4,0c-3.3-0.1-9.6-0.5-10.4,3.3c-0.3,1.8,1.3,2.4,1.3,4.3c0.1,2.6-2.4,4.8-2.2,7.4
	c0.1,1.4,1.2,1.9,1.5,3.1c0.5,2.7,0,6.6-0.2,9.8c-0.4,9.3-3.2,16.7-5.5,24.3c-1.5,5-3.2,10-4.8,15.1c-1.6,5.1-3.9,11.1-3.6,16
	c0,0.9,0.1,1.7,0.8,2.5c-2,4.2-2.6,10.3-3,16.4c-0.4,6.1-0.7,12.7,0.3,18.2c-1.4,3.2-0.1,8.2,0.7,12.9c2.5,16.1,6.1,36,1,52.6
	c-1.9,6.2-5.2,19.7,1.1,23.7c2.7,1.7,7.9,2.3,12.2,2.8c4.5,0.5,8.7,0.8,13.1,0.8c4.3,0,8.6-0.3,13.1-0.8c4.3-0.5,9.5-1.1,12.2-2.8
	C-401.2,314.7-404.5,301.1-406.4,294.9z"/>
<path class="st0" d="M-299.4,262.5c-5.8-18.7-1.7-41.2,1.1-59.3c0.8-5.3,2.3-11,0.7-14.5c1.2-6.2,0.8-13.6,0.4-20.5
	c-0.4-6.8-1.1-13.7-3.4-18.4c0.8-0.9,0.9-1.8,0.9-2.8c0.2-5.6-2.3-12.4-4.1-18.1c-1.8-5.7-3.7-11.3-5.4-17
	c-2.6-8.6-5.7-16.9-6.1-27.4c-0.2-3.6-0.8-8-0.2-11c0.3-1.4,1.5-2,1.7-3.5c0.3-3-2.5-5.5-2.4-8.4c0.1-2.1,1.9-2.8,1.5-4.8
	c-0.8-4.3-8.1-3.8-11.7-3.7c-1,0-1.9,0-2.8,0c-0.7,0-1.8,0-2.7,0c-3.7-0.1-10.9-0.5-11.7,3.7c-0.4,2.1,1.4,2.7,1.5,4.8
	c0.1,2.9-2.7,5.4-2.4,8.4c0.2,1.6,1.4,2.2,1.7,3.5c0.6,3,0,7.4-0.2,11c-0.5,10.5-3.6,18.8-6.1,27.4c-1.7,5.7-3.6,11.3-5.4,17
	s-4.3,12.5-4.1,18.1c0,1,0.1,1.9,0.9,2.8c-2.3,4.8-3,11.7-3.4,18.4c-0.4,6.9-0.8,14.3,0.4,20.5c-1.6,3.5-0.1,9.2,0.7,14.5
	c2.8,18.1,6.9,40.5,1.1,59.3c-2.1,7-5.9,22.2,1.3,26.6c3.1,1.9,8.9,2.6,13.7,3.2c5.1,0.6,9.8,0.9,14.7,0.9c4.9,0,9.7-0.3,14.8-0.9
	c4.8-0.6,10.7-1.3,13.8-3.2C-293.5,284.7-297.2,269.5-299.4,262.5z"/>
<path class="st0" d="M-192.2,227.9c-6.1-20-1.8-43.9,1.2-63.2c0.9-5.7,2.5-11.7,0.8-15.5c1.3-6.7,0.8-14.5,0.4-21.9
	c-0.4-7.2-1.1-14.6-3.6-19.7c0.9-0.9,0.9-1.9,1-3c0.3-6-2.5-13.2-4.4-19.3c-1.9-6.1-4-12-5.8-18.1c-2.7-9.1-6-18.1-6.6-29.2
	c-0.2-3.8-0.8-8.5-0.2-11.7c0.3-1.5,1.6-2.1,1.8-3.8c0.3-3.2-2.7-5.9-2.6-8.9c0.1-2.3,2-3,1.6-5.2c-0.9-4.5-8.6-4.1-12.5-4
	c-1,0-2,0-3,0c-0.7,0-1.9,0-2.9,0c-3.9-0.1-11.6-0.6-12.5,4c-0.4,2.2,1.5,2.9,1.6,5.2c0.1,3.1-2.9,5.7-2.6,8.9
	c0.2,1.7,1.5,2.3,1.8,3.8c0.6,3.2,0,7.9-0.2,11.7c-0.5,11.1-3.8,20.1-6.6,29.2c-1.8,6-3.9,12-5.8,18.1c-1.9,6.1-4.6,13.3-4.4,19.3
	c0,1.1,0.1,2,1,3c-2.4,5.1-3.1,12.4-3.6,19.7c-0.4,7.3-0.9,15.2,0.4,21.9c-1.7,3.8-0.1,9.8,0.8,15.5c3,19.3,7.3,43.2,1.2,63.2
	c-2.3,7.4-6.3,23.7,1.3,28.4c3.3,2,9.5,2.8,14.6,3.4c5.4,0.6,10.5,1,15.7,1s10.4-0.3,15.8-1c5.1-0.6,11.4-1.3,14.7-3.4
	C-186,251.6-189.9,235.3-192.2,227.9z"/>
<g>
	<g>
		<path d="M-316.5,228.9l16.7,28.3l31.6-80.3l-85.6-10.9l16.9,28.6c-71.5,36.8-143.8,41.9-178.9,13.6c1.2,6.8,3.5,13.1,7,19
			C-482.4,271.6-398.9,271.4-316.5,228.9z"/>
	</g>
</g>
<g>
	<path class="st1" d="M157.9,306.4L157.9,306.4C157.9,306.5,157.9,306.4,157.9,306.4L157.9,306.4z"/>
	<path class="st1" d="M351.9,200.6c-0.3-0.7-0.5-1.2-0.8-1.9c0.1,1.6,0.4,3.2,0.7,4.6l0.1,1.1l-0.4,0.9c-0.1,0.4-0.3,0.9-0.4,1.5
		l3-1.2L351.9,200.6z"/>
	<path class="st1" d="M433.2,313.9c-0.4-1.6-0.9-3.2-1.3-4.8l0,0c-7.8-25.4-3-55.7,0.7-80l0.8-5c0.3-1.5,0.5-2.9,0.8-4.4
		c0.9-5.6,2-11.1,0.5-14.3l-0.4-0.9l0.1-1.1c0.7-3.2,0.9-6.6,1.1-10.2c0.1-6-0.1-12.2-0.5-17.9c0-0.9-0.1-1.9-0.1-2.6
		c-0.5-8.3-1.6-16.5-4.2-22.1l-0.9-2l1.6-1.6c0.3-0.3,0.4-0.5,0.4-1.9c0.3-6.2-2.2-13.9-4.5-20.8c-0.4-1.2-0.8-2.4-1.2-3.6
		c-0.9-3.2-2-6.2-3-9.4c-1.6-4.8-3.2-9.7-4.6-14.5c-0.5-1.9-1.2-3.7-1.7-5.6c-0.1-0.4-0.3-0.8-0.4-1.2c-2.9-9.5-5.8-19.4-6.6-31.1
		c0-0.5-0.1-1.1-0.1-1.6c0-1.3-0.1-2.6-0.3-4.1c-0.3-4.2-0.7-8.6,0-12.3c0.3-1.6,1.1-2.6,1.7-3.4c0.4-0.7,0.7-0.9,0.7-1.2
		c0.1-1.3-0.5-2.8-1.5-4.5c-0.9-2-2.1-4.4-2-7.1c0-2.2,1.1-3.8,1.6-4.9c0.5-0.9,0.5-1.1,0.5-1.2c-0.5-2.9-8.7-2.6-12.3-2.6H397
		c-1.5,0-2.8,0-4.1,0c-0.9,0-2.5,0-4,0H388c-0.8,0-1.7,0-2.6,0c-3.8,0-9,0.4-9.5,2.6c0,0.3,0,0.3,0.5,1.2c0.7,1.1,1.6,2.6,1.6,4.9
		c0,2.8-1.1,5-2,7.1c-0.8,1.6-1.5,3-1.5,4.4v0.1c0,0.3,0.1,0.5,0.7,1.2c0.5,0.8,1.3,1.9,1.7,3.4c0.7,3.6,0.4,8.1,0,12.3
		c-0.1,1.3-0.3,2.8-0.3,4.1c0,0.7-0.1,1.3-0.1,2.1c-0.8,11.9-4,22.1-7,31.7c-0.5,1.9-1.2,3.7-1.7,5.6c-1.5,4.9-3,9.8-4.6,14.5
		c-1.1,3.2-2,6.2-3,9.4c-0.4,1.2-0.8,2.4-1.2,3.6c-2.2,6.9-4.8,14.5-4.5,20.8c0,1.3,0.1,1.5,0.4,1.9l1.6,1.6l-0.9,2
		c-1.1,2.2-1.9,4.9-2.5,7.9c-1.1,5.2-1.6,11-1.9,16.9c-0.4,7.5-0.9,15.9-0.1,23.4c0.3,0.7,0.5,1.2,0.8,1.9l2.1,5l-3,1.2
		c-0.7,3.3,0.1,8.2,1.1,13c0.3,1.5,0.5,2.9,0.8,4.4l0.4,2.8l0.4,2.2c3.8,24.3,8.5,54.6,0.7,80c-2,6.5-3.2,12.3-3.7,17.2
		c-0.8,8.5,0.5,14.4,4.1,16.5c0.9,0.5,2.1,1.1,3.4,1.5c4.2,1.3,10.1,2,14.5,2.5c7.3,0.8,13.8,1.2,20.4,1.3c0.4,0,0.7,0,1.1,0
		c6.3,0,12.7-0.4,19.3-1.2l0,0c6.1-0.7,14.3-1.7,18-4c2.6-1.7,4-5.3,4.2-9.8C436.1,327.6,435.1,320.7,433.2,313.9z"/>
	<path class="st1" d="M220,204.3l-0.9,2c-2,4.1-2.9,9.9-3.6,16l77.6,9.9c0-0.5,0-1.2-0.1-1.7c0-0.4,0-0.7,0-1.1
		c-0.5-8.6-1.3-17.5-4.1-23.1l-0.9-2l1.6-1.6c0.3-0.3,0.3-0.4,0.4-1.6c0.3-5.7-2.1-13-4.2-19.3c-0.4-1.2-0.8-2.2-1.1-3.4
		c-0.9-2.9-1.9-5.8-2.8-8.7c-1.5-4.5-2.9-9.1-4.4-13.8c-0.5-1.7-1.1-3.4-1.6-5.3c-1.1-3.3-2-6.6-2.9-9.9c-1.7-6.2-3.2-13-3.6-20.2
		c0-0.5-0.1-1.1-0.1-1.6c0-1.2-0.1-2.5-0.3-3.8c-0.3-4-0.7-8.1,0-11.5c0.3-1.6,1.1-2.5,1.6-3.3c0.4-0.7,0.5-0.8,0.5-1.1
		c0.1-1.2-0.5-2.5-1.3-4.1c-0.9-2-2-4.1-2-6.7c0-2.2,0.9-3.7,1.6-4.6c0.5-0.8,0.5-0.8,0.4-1.1c-0.5-2.5-8.3-2.4-11.2-2.2h-0.9
		c-1.3,0-2.5,0-3.8,0c-0.9,0-2.4,0-3.7,0h-0.9c-0.7,0-1.5,0-2.4,0c-3.4,0-8.5,0.3-8.7,2.2c0,0.1,0,0.3,0.4,1.1
		c0.7,1.1,1.5,2.5,1.6,4.6c0,2.6-1.1,4.8-2,6.7c-0.8,1.6-1.5,2.9-1.3,4.1c0,0.3,0.1,0.4,0.5,1.1c0.5,0.8,1.3,1.9,1.6,3.3
		c0.7,3.4,0.4,7.5,0,11.5c-0.1,1.3-0.1,2.5-0.3,3.8c-0.4,7.1-1.6,13.5-3,19.6c-1.1,4.2-2.4,8.2-3.6,12.3c-0.5,1.7-1.1,3.4-1.6,5.2
		c-1.3,4.6-2.9,9.3-4.4,13.8c-0.9,2.9-1.9,5.8-2.8,8.7c-0.4,1.1-0.7,2.2-1.1,3.4c-1.1,3.3-2.2,6.7-3,10.2c-0.8,3.2-1.3,6.3-1.2,9.1
		c0,1.2,0.1,1.3,0.4,1.6L220,204.3z"/>
	<path class="st1" d="M215.5,256.8l-0.4,0.9c-0.5,1.2-0.7,2.9-0.5,4.8c0.1,2.5,0.7,5.6,1.2,8.5c0.1,0.9,0.3,1.7,0.5,2.6
		c7.7-3.3,15.3-6.9,22.9-10.7l-23.7-40.1c-0.3,2.2-0.4,4.5-0.5,6.6c-0.5,8.6-1.1,18.3,0.4,26.3L215.5,256.8z"/>
	<path class="st1" d="M287.9,345l-18.4-31.1c-16.1,8.2-32.3,15.1-48.1,20.9c-0.5,6.9-1.6,13.6-3.6,20.1c-4.5,14.8-4.9,26.1-1.1,30.4
		c0.4,0.4,0.8,0.8,1.2,1.1c3.4,2.1,11.1,3,16.8,3.7c3.3,0.4,6.3,0.7,9.4,0.8c3.3,0.3,6.5,0.3,9.8,0.3c6.2,0,12.4-0.4,19.2-1.2
		c5.7-0.7,13.4-1.6,16.8-3.7c3-1.9,4.1-6.3,4-11.9c-0.1-5.7-1.6-12.8-3.6-19.3C289.3,351.8,288.5,348.5,287.9,345z"/>
	<path class="st1" d="M146.2,353.1c-10.1,1.2-19.7,1.7-29,1.7c-10.3,0-20.2-0.8-29.6-2.1c1.6,15.1,2,31-2.5,45.2
		c-1.2,3.7-2,7.1-2.5,10.3c-1.6,8.9-0.7,15.1,2.6,17.2c3,1.9,9.8,2.6,14.8,3.3c1.2,0.1,2.2,0.3,3.3,0.4c4.6,0.4,9.1,0.7,13.6,0.7
		c5.6,0,11.1-0.4,16.9-1.1c5-0.5,11.8-1.3,14.8-3.3c4.4-2.8,4.4-13.2,0-27.5C144.5,383.8,144.6,368,146.2,353.1z"/>
	<path class="st1" d="M107.3,302.2c14.4-1.1,29.2-3.4,44.4-6.9c0-2.4-0.1-4.8-0.3-7c0-0.7-0.1-1.3-0.1-2c-0.4-7.7-1.2-15.3-3.6-20.4
		l-0.9-2l1.6-1.6c0.1-0.1,0.1-0.1,0.3-1.2c0.3-5-1.9-11.4-3.7-17.1c-0.4-1.1-0.7-2-0.9-3c-0.8-2.6-1.7-5.2-2.5-7.8
		c-1.3-4-2.6-8.1-3.8-12.2c-0.4-1.6-0.9-3-1.5-4.6c-2.2-7.4-4.6-15.1-5.6-23.9c-0.1-1.5-0.3-2.9-0.4-4.4c0-1.1-0.1-2.2-0.3-3.3
		c-0.3-3.6-0.5-7.3,0-10.3c0.1-0.7,0.4-1.2,0.5-1.6c0.3-0.7,0.7-1.1,0.9-1.5s0.4-0.7,0.4-0.8c0.1-0.9-0.5-2.1-1.1-3.4
		c-0.8-1.7-1.9-3.7-1.7-6.1c0-2,0.9-3.4,1.5-4.4c0.1-0.3,0.4-0.5,0.4-0.7c-0.3-1.3-3.6-1.9-9.7-1.7h-0.8c-1.2,0-2.2,0-3.4,0
		c-0.1,0-0.1,0-0.3,0c-0.8,0-2,0-3,0H113c-0.7,0-1.3,0-1.9,0c-4.9,0-7.4,0.5-7.7,1.7c0,0.1,0.3,0.4,0.4,0.7c0.5,0.9,1.5,2.2,1.5,4.4
		c0,2.4-0.9,4.4-1.7,6.1c-0.7,1.3-1.2,2.5-1.1,3.4c0,0.1,0.1,0.3,0.4,0.8c0.5,0.7,1.2,1.7,1.5,3.2c0.7,3,0.4,6.7,0,10.3
		c-0.1,1.2-0.1,2.2-0.3,3.3c-0.1,2.9-0.4,5.6-0.8,8.2c-1.2,7.3-3.2,13.8-5,20.1c-0.5,1.6-0.9,3-1.5,4.6c-1.2,4.1-2.5,8.2-3.8,12.2
		c-0.8,2.6-1.7,5.2-2.5,7.8c-0.3,0.9-0.7,2-0.9,3c-1.9,5.7-4,12-3.7,17.1c0,1.1,0.1,1.1,0.3,1.2l1.6,1.6l-0.9,2
		c-2.4,5-3.2,12.8-3.6,20.4c-0.3,5.2-0.7,11-0.4,16.4C90.7,303,98.9,302.8,107.3,302.2z"/>
	<path class="st1" d="M9.5,279.7c5.4,4.4,11.6,8.2,18.6,11.4c-4.5-29.4-3.3-59.3,3.8-88.2l1.1-4.2l4.4,0.3
		c19.7,0.9,39.7,0.4,59.1-1.3c0.5-2.9,0.9-6,1.1-9.3c0-1.2,0.1-2.4,0.3-3.6c0.1-2.4,0.4-4.8,0.3-6.9l-3,0.3
		c-12.4,1.2-25,1.7-37.7,1.7c-3.7,0-7.4,0-11.1-0.1l-7.5-0.3l2.8-7c10.2-25.9,24.6-49.3,42.9-69.8l8.7-9.8l0.5,13.1
		c0.5,16,1.9,32,3.7,47.9c2.2-6.2,11-6,15.9-5.8h0.8c0.7,0,1.5,0,2.1,0c-2.6-23-3.8-46.4-3.4-69.6v-2.5l2-1.6
		c12.6-9.7,26.2-18.1,40.6-25.1l5-2.5l43.3,106.1l-5.2,1.9c-19.6,7.1-39.7,12.8-59.8,16.9c-0.1,1.9-1.1,3-1.6,3.8
		c-0.1,0.3-0.4,0.5-0.4,0.5c-0.4,2.1-0.1,5.4,0,8.6c0.1,1.2,0.1,2.4,0.3,3.6c0,1.2,0.1,2.4,0.3,3.4c23.3-4.5,46.4-10.8,68.9-19.2
		l4.8-1.7l4.8,11.8c0.3-0.8,0.5-1.6,0.8-2.4c0.4-1.2,0.8-2.2,1.1-3.3c0.9-2.9,1.9-6,2.8-8.9c1.5-4.5,2.9-9,4.2-13.5
		c0.5-1.7,1.1-3.6,1.6-5.3c0.7-2.1,1.3-4.4,2-6.6c-0.5,0.3-1.2,0.5-1.7,0.8l-5,2.2L178,38.9l5.3-1.9c15.2-5,30.8-8.6,46.6-10.4
		l2.5-0.3l1.9,1.9c21.6,21.6,41.5,45,59.3,69.7l3.2,4.4l-4.4,3c-5.4,3.8-11,7.4-16.7,11c0,0.7,0.1,1.3,0.1,2
		c0.3,6.7,1.5,12.8,3,18.6c8.3-4.9,16.4-10.2,24.2-15.6l4.5-3.2l2.9,4.6c12.4,19.4,23.7,39.8,33.7,60.8c0.1-3,0.3-6,0.4-8.9
		c0.7-10.2,1.6-18.5,4.1-24.9c-7.3-13.5-14.9-26.6-23.1-39.3l-2.6-4l3.7-3c14.9-12,29.4-25.3,42.7-39.4c0.3-2.4,0.5-4.9,0.7-7.4
		c0-1.3,0.1-2.8,0.3-4.2c0.3-3.8,0.5-7.8,0-10.4c0-0.1-0.3-0.5-0.5-0.9c-0.7-0.9-1.6-2.2-1.9-4.4c-0.1-1.5,0-2.8,0.4-4.1
		c-62-31.2-137-36.5-206.6-8.2C57.9,66.7-2.3,171.3,6.9,277.6L9.5,279.7z M271.3,25.7c27.4,1.9,54.1,8.6,79.5,20l6.9,3l-5.3,5.4
		c-11.4,11.6-23.4,22.7-36,32.9l-4.4,3.6l-3.3-4.5c-12.8-17.9-27-35.2-41.8-51.6l-8.9-9.8L271.3,25.7z"/>
	<path class="st1" d="M487.5,161.6c-15.9-38.9-40.5-71.7-70.6-97c1.2,8.9,3.7,16.8,6.1,24.5c0.5,1.9,1.2,3.7,1.7,5.7
		c0.5,1.9,1.2,3.7,1.7,5.6c14.8,16.1,27.2,34.5,37,54.5l2.5,5L441.2,170c0.1,1.6,0.3,3.2,0.4,4.9c0.3,5,0.7,10.3,0.5,15.6l31-12.6
		l1.9,5.3c13.6,41,15.6,84.7,5.4,126.4l-1.1,4.2l-4.4-0.3c-11.6-0.5-23.3-0.5-34.9-0.1c1.5,6.1,2.6,13,2.4,19.3
		c7.8-0.3,15.7-0.3,23.7,0l7.5,0.3l-2.8,7c-10.2,25.9-24.6,49.3-42.9,69.8l-8.7,9.8l-0.5-13.1c-0.7-17.7-2.1-35.4-4.4-53
		c0,0,0,0-0.1,0c-6.6,0.8-13,1.2-19.2,1.3c3.4,26.2,5,52.8,4.6,79.4v2.5l-2,1.6c-12.6,9.7-26.2,18.1-40.6,25.1l-5,2.5L308.8,360
		l5.2-1.9c11.5-4.2,23.3-7.9,35.1-11.1c-4.4-4.2-5.6-11.1-5.2-18.6c-12.7,3.4-25.1,7.4-37.6,12l-4.8,1.7l-1.6-3.8l-4.4,11.1
		c0.3,1.3,0.7,2.5,1.1,3.8c3.4,11,6,24.6,2,33.1l35.4,87l-5.3,1.9c-15.2,5-30.8,8.6-46.6,10.4l-2.5,0.3l-1.9-1.9
		c-21.6-21.6-41.5-45-59.3-69.7l-3.2-4.4l4.4-3c4.9-3.4,9.9-6.7,14.9-9.9c-0.3,0-0.4,0-0.7-0.1c-6.6-0.8-14.8-1.7-19.6-4.6
		c-1.3-0.8-2.4-1.9-3.3-2.9c-0.8,0.5-1.5,1.1-2.2,1.6l-4.5,3.2l-2.9-4.6c-8.6-13.5-16.7-27.5-24.2-41.8c-6.6,1.5-13.2,2.8-19.7,3.7
		c8.9,17.3,18.5,34.1,28.8,50.3l2.6,4l-3.7,3c-16,12.8-31.2,27-45.4,42.2l-3,3.2l-3.7-2.4c-7.4-4.6-14.5-9.8-21.4-15.2
		c-4.1-0.1-8.3-0.5-12.7-0.9c-6-0.7-13.2-1.6-17.5-4.2c-8.1-5-7.3-17.7-4.5-29.2c-11.1-13.6-20.8-28.6-28.4-44.7l-2.5-5l15.3-6.2
		c-21.2-7.5-37.7-19.8-47.9-37.2c-1.2-2.1-2.4-4.2-3.4-6.3c3,16,7.8,32,14.2,47.7C63.9,447.3,157.7,506,256.3,506
		c31.3,0,63.2-6,94-18.5C478.1,435.5,539.6,289.2,487.5,161.6z M240.7,486.3c-27.4-1.9-54.1-8.6-79.5-20l-6.9-3l5.3-5.4
		c11.4-11.6,23.4-22.7,36-32.9l4.4-3.6l3.3,4.5c12.8,17.9,27,35.2,41.8,51.6l8.9,9.8L240.7,486.3z"/>
	<path class="st1" d="M330.1,243.6l-102.2-13l20.6,35.1l-3.2,1.6c-46.6,23.9-94.2,38.4-137.6,41.5c-30.6,2.2-57.1-1.2-78.4-9.9l0,0
		c-1.5-0.7-2.9-1.2-4.4-1.9c-0.1,0-0.1-0.1-0.3-0.1c-1.3-0.7-2.6-1.3-4-2c-0.4-0.3-0.8-0.4-1.2-0.7c-0.9-0.5-2-1.1-2.9-1.6
		c-1.5-0.8-2.8-1.6-4.1-2.5c1.6,5.4,4,10.6,6.9,15.6c0.5,0.9,1.1,1.7,1.6,2.6c0.1,0.1,0.3,0.4,0.4,0.5c0.4,0.7,0.9,1.3,1.3,2
		c0.1,0.1,0.3,0.4,0.4,0.5c0.5,0.7,0.9,1.3,1.5,2c0.1,0.1,0.3,0.3,0.3,0.4c0.5,0.7,1.1,1.3,1.7,2c0.1,0.1,0.1,0.1,0.3,0.3
		c0.7,0.7,1.2,1.5,1.9,2.1l0.1,0.1c0.7,0.7,1.3,1.5,2.1,2.1l0,0c1.5,1.5,3,2.9,4.8,4.2l0,0l0,0c3.2,2.6,6.6,4.9,10.2,7.1l0,0l0,0
		c0.9,0.5,1.9,1.1,2.8,1.6l0,0c0.9,0.5,2,1.1,2.9,1.6l0,0c0.9,0.5,2,0.9,3,1.5l0,0c1.1,0.5,2,0.9,3,1.3l0,0c1.1,0.4,2.1,0.9,3.2,1.3
		l0,0c1.1,0.4,2.1,0.8,3.3,1.2l0,0c1.1,0.4,2.2,0.8,3.3,1.1l0,0c1.2,0.4,2.2,0.7,3.4,1.1l0,0l0,0c13.2,3.7,28.2,5.8,44.6,5.8
		c12.4,0.1,25.4-0.9,38.6-2.9l0,0l0,0c1.6-0.3,3.2-0.5,4.9-0.8l0,0c1.6-0.3,3.3-0.5,4.9-0.8l0,0c1.6-0.3,3.3-0.7,4.9-0.9l0,0
		c1.6-0.3,3.3-0.7,4.9-1.1l0,0l0,0c31-6.7,63.5-18.6,95.2-34.9l2.8-1.5l20.2,34.3l1.1-2.8l0,0l2.9-7.3l0,0L330.1,243.6z"/>
</g>
</svg>
