<?xml version="1.0" encoding="utf-8"?>
<!-- Generator: Adobe Illustrator 21.0.0, SVG Export Plug-In . SVG Version: 6.00 Build 0)  -->
<svg version="1.1" id="Capa_1" xmlns="http://www.w3.org/2000/svg" xmlns:xlink="http://www.w3.org/1999/xlink" x="0px" y="0px"
	 viewBox="0 0 512 512" style="enable-background:new 0 0 512 512;" xml:space="preserve">
<style type="text/css">
	.st0{fill:#FFFFFF;}
</style>
<g>
	<g>
		<path class="st0" d="M494.1,139.8L263.7,41c-4.9-2.1-10.5-2.1-15.5,0L17.9,139.8C10.7,142.9,6,150,6,157.9c0,7.9,4.7,15,11.9,18
			l230.4,98.2c2.5,1,5.1,1.6,7.7,1.6c2.6,0,5.2-0.5,7.7-1.6l230.4-98.2c7.2-3.1,11.9-10.2,11.9-18C506,150,501.3,142.9,494.1,139.8z
			 M256,234.7L75.6,157.8L256,80.4l180.4,77.4L256,234.7z"/>
	</g>
</g>
<g>
	<g>
		<path class="st0" d="M504.4,346.4c-4.3-10-15.8-14.6-25.8-10.3L256,431.6L33.4,336.1c-10-4.3-21.5,0.3-25.8,10.3
			c-4.3,10,0.3,21.5,10.3,25.8L248.3,471c2.5,1.1,5.1,1.6,7.7,1.6c2.6,0,5.3-0.5,7.7-1.6l230.4-98.8
			C504.1,367.9,508.7,356.4,504.4,346.4z"/>
	</g>
</g>
<g>
	<g>
		<path class="st0" d="M504.4,248.3c-4.3-10-15.8-14.6-25.8-10.4L256,332.8L33.3,237.9c-10-4.3-21.5,0.4-25.8,10.4
			c-4.3,10,0.4,21.5,10.4,25.8l230.4,98.2c2.5,1,5.1,1.6,7.7,1.6c2.6,0,5.2-0.5,7.7-1.6l230.4-98.2
			C504,269.8,508.7,258.3,504.4,248.3z"/>
	</g>
</g>
</svg>
