<?xml version="1.0" encoding="utf-8"?>
<!-- Generator: Adobe Illustrator 21.0.0, SVG Export Plug-In . SVG Version: 6.00 Build 0)  -->
<svg version="1.1" id="Layer_1" xmlns="http://www.w3.org/2000/svg" xmlns:xlink="http://www.w3.org/1999/xlink" x="0px" y="0px"
	 viewBox="0 0 512 512" style="enable-background:new 0 0 512 512;" xml:space="preserve">
<style type="text/css">
	.st0{fill:#5B5D7A;}
</style>
<circle class="st0" cx="305.7" cy="479.1" r="8"/>
<g>
	<g>
		<path class="st0" d="M255.9,506c-9.9,0-20-0.6-30.7-1.9c-10.1-1.2-22.8-2.6-30.1-7.2c-16.2-10-11.5-38.4-4.8-60.4
			c10.6-34.5,4.2-75.2-1.4-111.1c-0.4-2.4-0.7-4.9-1.2-7.3c-0.3-2-0.6-4-1.1-6c-1.6-9.1-3.2-17.8-0.7-24.8
			c-2.2-13.2-1.4-28.2-0.5-41.5c0.8-15.1,2.3-27.3,6.1-36.8c-1.1-2.3-1.2-4.4-1.2-5.9c-0.4-10.7,3.5-22.8,7-33.5
			c0.5-1.8,1.2-3.5,1.7-5.2c1.5-4.5,3-9.1,4.3-13.6c2.2-6.9,4.5-13.8,6.6-20.8c0.8-2.7,1.7-5.4,2.5-8.1c4.4-14.3,9-29.1,9.8-46.4
			c0.1-2,0.2-4.1,0.4-6.1c0.4-5.5,0.8-11.1,0.1-15c0-0.2-0.4-0.7-0.7-1.2c-1-1.4-2.4-3.4-2.7-6.6c-0.4-4.7,1.5-8.7,3-11.8
			c1.1-2.1,2-4.1,1.9-5.6c0-0.5-0.2-1-1-2.1c-1.1-1.8-2.9-4.7-2-8.9C223.7,5.4,240.2,5.9,249,6.1h1.4c2.2,0,4.5,0,5.4,0
			c1.7,0,3.6,0,5.6,0h1.4c8.9-0.2,25.5-0.6,27.9,11.9c0.8,4.2-1,7.2-2,8.9c-0.6,1.2-0.8,1.5-1,2.1c0,1.5,1,3.5,1.9,5.6
			c1.6,3.2,3.5,7.2,3,11.8c-0.3,3.2-1.8,5.2-2.7,6.6c-0.2,0.3-0.7,1-0.7,1.2c-0.7,3.9-0.3,9.5,0.1,15c0.1,2,0.3,4.1,0.4,6.1
			c0.8,17.3,5.4,32.1,9.8,46.4c0.8,2.7,1.7,5.4,2.5,8.1c2.1,7,4.3,14.1,6.7,20.8c1.5,4.5,3,9.1,4.3,13.6c0.5,1.7,1.1,3.4,1.7,5.2
			c3.5,10.7,7.4,22.7,7,33.5c-0.1,1.5-0.2,3.7-1.2,5.9c3.8,9.5,5.3,21.7,6.1,36.8c0.7,13.3,1.7,28.3-0.5,41.5
			c2.4,7.1,0.8,15.8-0.7,24.8c-0.3,2-0.7,4-1.1,6c-0.3,2.4-0.7,4.8-1.2,7.3c-5.6,35.9-11.9,76.6-1.4,111.1l0,0
			c6.8,22,11.3,50.2-4.9,60.4c-7.3,4.5-20,6-30.2,7.2C276,505.4,265.9,506,255.9,506z M245,16.6c-5.3,0-12.7,0.4-13.3,3.4
			c0,0.1,0,0.1,0,0.1c0,0.2,0.4,0.8,0.7,1.3c1,1.6,2.3,3.9,2.4,7.3c0.1,4-1.6,7.5-3,10.5c-1.2,2.4-2.1,4.4-2,6.2
			c0,0.3,0.2,0.6,0.8,1.5c0.8,1.2,2,2.9,2.5,5.2c1.1,5.3,0.5,11.6,0.1,17.9c-0.1,2-0.3,4-0.4,5.8c-0.8,18.7-5.6,34.1-10.3,49.1
			c-0.8,2.6-1.7,5.4-2.4,8c-2.1,7.1-4.4,14.2-6.7,21.1c-1.5,4.4-3,9-4.3,13.5c-0.5,1.7-1.1,3.5-1.7,5.2c-3.2,9.8-6.8,20.9-6.4,29.8
			c0.1,1.8,0.2,2,0.5,2.3l2.4,2.6l-1.6,3.3c-4.2,8.8-5.5,22.3-6.3,35.6c-0.7,13.2-1.7,28.1,0.6,40.5l0.3,1.6l-0.6,1.5
			c-1.9,4.4-0.5,12.5,0.8,20.4c0.3,2.1,0.7,4.2,1.1,6.2c0.3,2.3,0.7,4.8,1.2,7.2c5.5,35.2,12.3,79,1,115.9
			c-7.6,24.8-7.5,43.3,0.3,48.2c5.3,3.3,17.1,4.7,25.8,5.7c10.4,1.2,19.8,1.8,29.4,1.8c9.6,0,19.2-0.6,29.5-1.8
			c8.7-1.1,20.6-2.4,25.9-5.7c7.8-4.9,8-23.4,0.3-48.2c-11.3-36.8-4.5-80.7,1-115.9c0.4-2.4,0.7-4.9,1.2-7.2
			c0.3-2.1,0.7-4.2,1.1-6.2c1.4-7.8,2.9-16,0.8-20.4l-0.6-1.5l0.3-1.6c2.3-12.3,1.5-27.3,0.6-40.5c-0.7-13.3-2.1-26.9-6.3-35.6
			l-1.6-3.3l2.4-2.6c0.3-0.3,0.4-0.5,0.5-2.3c0.4-8.8-3.3-20-6.4-29.8c-0.5-1.8-1.2-3.5-1.7-5.2c-1.4-4.5-2.9-9-4.3-13.5
			c-2.2-6.9-4.5-14.1-6.7-21.1c-0.8-2.6-1.6-5.4-2.4-8c-4.7-14.9-9.4-30.3-10.3-49.1c-0.1-1.8-0.2-3.8-0.4-5.8
			c-0.4-6.1-1-12.6,0.1-17.9c0.5-2.4,1.7-4,2.5-5.2c0.6-0.8,0.8-1.2,0.8-1.5c0.2-1.7-0.8-3.8-2-6.2c-1.5-3-3.1-6.3-3-10.5
			c0.1-3.4,1.5-5.8,2.4-7.3c0.2-0.4,0.6-1.1,0.7-1.3c0,0,0,0,0-0.1c-0.7-3.8-13.1-3.5-17.2-3.4h-1.4c-2.2,0-4.2,0-5.8,0
			c-0.8,0-3.3,0-5.7,0H249C247.8,16.6,246.5,16.6,245,16.6z"/>
	</g>
	<circle class="st0" cx="256" cy="158.2" r="33.8"/>
	<circle class="st0" cx="277.1" cy="376" r="33.8"/>
	<circle class="st0" cx="222.1" cy="463.7" r="33.8"/>
	<circle class="st0" cx="290.3" cy="443.1" r="29.1"/>
	<circle class="st0" cx="220.6" cy="357.5" r="21.7"/>
	<circle class="st0" cx="203.1" cy="269.2" r="15.9"/>
	<circle class="st0" cx="228" cy="406.1" r="20.6"/>
	<circle class="st0" cx="299.3" cy="333.7" r="8.5"/>
	<circle class="st0" cx="272.9" cy="20.8" r="8.5"/>
	<circle class="st0" cx="248" cy="42.4" r="10"/>
	<circle class="st0" cx="269.7" cy="484.9" r="13.7"/>
	<circle class="st0" cx="314.1" cy="304.1" r="8.5"/>
	<circle class="st0" cx="256" cy="298.8" r="43.3"/>
	<circle class="st0" cx="226.4" cy="222.7" r="32.8"/>
	<circle class="st0" cx="287.2" cy="213.7" r="23.8"/>
	<circle class="st0" cx="308.3" cy="256" r="18.5"/>
	<circle class="st0" cx="302.5" cy="175.1" r="11.6"/>
	<circle class="st0" cx="243.3" cy="109.6" r="11.6"/>
	<circle class="st0" cx="272.9" cy="49.3" r="11.6"/>
	<circle class="st0" cx="238" cy="20.8" r="11.6"/>
	<circle class="st0" cx="248.6" cy="74.7" r="16.9"/>
	<circle class="st0" cx="275" cy="105.3" r="16.9"/>
</g>
</svg>
