<?xml version="1.0" encoding="utf-8"?>
<!-- Generator: Adobe Illustrator 21.0.0, SVG Export Plug-In . SVG Version: 6.00 Build 0)  -->
<svg version="1.1" id="Layer_1" xmlns="http://www.w3.org/2000/svg" xmlns:xlink="http://www.w3.org/1999/xlink" x="0px" y="0px"
	 viewBox="0 0 512 512" style="enable-background:new 0 0 512 512;" xml:space="preserve">
<style type="text/css">
	.st0{fill:#FFFFFF;}
</style>
<g>
	<path class="st0" d="M308.4,274.3l30.1-52.2c1.8-3.1,2.3-6.8,1.3-10.2c-0.9-3.5-3.2-6.4-6.3-8.2l-19-10.9l0.2-1
		c1.4-7.9,2.2-16.1,2.2-24.1s-0.7-16.2-2.2-24.1l-0.2-1l19-10.9c6.4-3.7,8.7-12.1,4.9-18.5l-30.1-52.2c-1.8-3.1-4.7-5.4-8.2-6.3
		c-3.5-0.9-7.1-0.5-10.2,1.3l-19,10.9L270,66c-12.5-10.5-26.4-18.7-41.8-24.1l-1-0.4V19.6c0-7.4-6.1-13.6-13.6-13.6h-60.3
		c-7.4,0-13.6,6.1-13.6,13.6v21.9l-1,0.4C123.6,47.3,109.5,55.4,97,66l-0.8,0.7L77.4,55.7c-3.1-1.8-6.8-2.3-10.2-1.3
		c-3.5,0.9-6.4,3.2-8.2,6.3L28.7,113c-1.8,3.1-2.3,6.8-1.3,10.2c0.9,3.5,3.2,6.4,6.3,8.2l19,10.9l-0.2,1c-1.4,7.9-2.2,16.1-2.2,24.1
		s0.7,16.2,2.2,24.1l0.2,1l-19,10.9c-3.1,1.8-5.4,4.7-6.3,8.2c-0.9,3.5-0.5,7.1,1.3,10.2l30.1,52.2c1.8,3.1,4.7,5.4,8.2,6.3
		c3.5,0.9,7.1,0.5,10.2-1.4l19-10.9l0.8,0.7c12.5,10.5,26.4,18.7,41.8,24.1l1,0.4v21.9c0,7.4,6.1,13.6,13.6,13.6h60.3
		c7.4,0,13.6-6.1,13.6-13.6v-21.9l1-0.4c15.3-5.4,29.3-13.6,41.8-24.1l0.8-0.7l19,10.9c3.1,1.8,6.8,2.3,10.2,1.3
		C303.7,279.7,306.6,277.4,308.4,274.3z M291.7,249l-16-9.2c-5.3-3.1-12.2-2.2-16.5,2.2c-13.5,13.8-30.4,23.5-48.9,28.3
		c-6,1.5-10.1,6.9-10.1,13.2v18.4h-33.1v-18.4c0-6.2-4.2-11.6-10.1-13.2c-18.5-4.8-35.5-14.6-48.9-28.3c-4.3-4.4-11-5.3-16.5-2.2
		l-16,9.2L59,220.2l16-9.2c5.3-3.1,7.9-9.4,6.3-15.4c-2.5-9.1-3.8-18.7-3.8-28.3c0-9.5,1.3-19.1,3.8-28.3c1.6-5.9-0.9-12.3-6.3-15.4
		l-16-9.2l16.6-28.7l16,9.2c5.3,3.1,12.2,2.2,16.5-2.2c13.5-13.8,30.4-23.5,48.9-28.3c6-1.5,10.1-6.9,10.1-13.2V33.1h33.1v18.4
		c0,6.2,4.2,11.6,10.1,13.2c18.5,4.8,35.5,14.6,48.9,28.3c4.3,4.4,11,5.3,16.5,2.2l16-9.2l16.6,28.7l-16,9.2
		c-5.3,3.1-7.9,9.4-6.3,15.4c2.5,9.1,3.8,18.7,3.8,28.3c0,9.5-1.3,19.1-3.8,28.3c-1.6,5.9,0.9,12.3,6.3,15.4l16,9.2L291.7,249z"/>
	<path class="st0" d="M185.3,104.9c-34.5,0-62.6,28-62.6,62.6s28,62.6,62.6,62.6s62.6-28,62.6-62.6S219.9,104.9,185.3,104.9z
		 M185.3,203.9c-20.1,0-36.5-16.4-36.5-36.5s16.4-36.5,36.5-36.5s36.5,16.4,36.5,36.5S205.4,203.9,185.3,203.9z"/>
	<path class="st0" d="M460.1,463.2l23.5-40.8c2.8-4.9,1.1-11.1-3.7-14.1l-15.1-8.6l0.2-1c1.1-6.1,1.7-12.5,1.7-18.8
		c0-6.3-0.6-12.7-1.7-18.8l-0.2-1l15.1-8.6c4.9-2.8,6.6-9.1,3.7-14.1l-23.5-40.8c-1.4-2.4-3.6-4.1-6.2-4.8c-2.6-0.7-5.4-0.3-7.8,1
		l-15.1,8.6l-0.8-0.7c-9.6-8.2-20.6-14.6-32.5-18.8l-1-0.4v-17.4c0-5.6-4.6-10.2-10.2-10.2h-47.1c-5.6,0-10.2,4.6-10.2,10.2v17.5
		l-1,0.4c-12,4.2-22.8,10.5-32.5,18.8l-0.8,0.7l-15.1-8.6c-2.4-1.4-5.1-1.7-7.8-1c-2.6,0.7-4.8,2.4-6.2,4.8l-23.5,40.8
		c-1.4,2.4-1.7,5.1-1,7.8c0.7,2.6,2.4,4.8,4.8,6.2l15.1,8.6l-0.2,1c-1.1,6.1-1.7,12.5-1.7,18.8c0,6.3,0.6,12.7,1.7,18.8l0.2,1
		l-15.1,8.6c-2.4,1.4-4.1,3.6-4.8,6.2c-0.7,2.6-0.3,5.4,1,7.8l23.5,40.8c1.4,2.4,3.6,4.1,6.2,4.8c2.6,0.7,5.4,0.3,7.8-1l15.1-8.6
		l0.8,0.7c9.6,8.2,20.6,14.6,32.5,18.8l1,0.4v17.4c0,5.6,4.6,10.2,10.2,10.2h47.2c5.6,0,10.2-4.6,10.2-10.2v-17.4l1-0.4
		c12-4.2,22.8-10.5,32.5-18.8l0.8-0.7l15.1,8.6c2.4,1.4,5.1,1.7,7.8,1C456.5,467.2,458.7,465.5,460.1,463.2z M447.5,444l-12.8-7.3
		c-4-2.3-9.1-1.6-12.5,1.7c-10.5,10.7-23.9,18.4-38.4,22.2c-4.5,1.2-7.7,5.2-7.7,9.9v14.7h-26.5v-14.7c0-4.7-3.1-8.7-7.7-9.9
		c-14.5-3.7-27.8-11.5-38.4-22.2c-3.3-3.3-8.4-4-12.5-1.7l-12.8,7.3l-13.3-23l12.8-7.3c4-2.3,6-7.1,4.7-11.7c-2-7.2-3-14.7-3-22.2
		c0-7.5,1-15,3-22.2c1.2-4.5-0.7-9.2-4.7-11.7l-12.8-7.3l13.3-23l12.8,7.3c4,2.3,9.1,1.6,12.5-1.7c10.5-10.7,23.9-18.4,38.4-22.2
		c4.5-1.2,7.7-5.2,7.7-9.9v-14.7h26.5v14.7c0,4.7,3.1,8.7,7.7,9.9c14.5,3.7,27.8,11.5,38.4,22.2c3.3,3.3,8.4,4,12.5,1.7l12.8-7.3
		l13.3,23L448,346c-4,2.3-6,7.1-4.7,11.7c2,7.2,3,14.7,3,22.2c0,7.5-1,15-3,22.2c-1.2,4.5,0.7,9.2,4.7,11.7l12.8,7.3L447.5,444z"/>
	<path class="st0" d="M364.3,331c-26.9,0-48.9,21.9-48.9,48.9c0,27,21.9,48.9,48.9,48.9c27,0,48.9-21.9,48.9-48.9
		C413.2,352.9,391.2,331,364.3,331z M364.3,408.3c-15.7,0-28.4-12.8-28.4-28.4c0-15.7,12.8-28.4,28.4-28.4s28.4,12.8,28.4,28.4
		C392.7,395.5,380,408.3,364.3,408.3z"/>
</g>
</svg>
