<?xml version="1.0" encoding="utf-8"?>
<!-- Generator: Adobe Illustrator 21.0.0, SVG Export Plug-In . SVG Version: 6.00 Build 0)  -->
<svg version="1.1" id="Layer_1" xmlns="http://www.w3.org/2000/svg" xmlns:xlink="http://www.w3.org/1999/xlink" x="0px" y="0px"
	 viewBox="0 0 512 512" style="enable-background:new 0 0 512 512;" xml:space="preserve">
<style type="text/css">
	.st0{fill:#FFFFFF;}
</style>
<path class="st0" d="M193.9,15c0.3,16.5,1.8,38.1-1,53.1c-5.4,1.7-11.2-1-17.5-1c-22.3,0.3-36.7,20.5-37.6,39.4
	c-0.8,17.5,10.1,33.7,23.8,40.3c8.5,4,19.1,2.6,31.2,1.8c3,15.1,0.6,35.8,1.4,53.1c-10.7,0-24.7,0-38,0c-12.5,0-27-1.9-33.4,5
	c1.1,10.4,5.8,13.3,5,24.3c-2.5,36.9-60.4,30.8-53.5-8.2c1-5.3,5.4-11.2,4.2-16.1c-1.8-6.9-23.4-5-33-5c-14.6,0-25.4,0-38,0
	c0-45.9,0-92.6,0-140.2c0-14.3-2.6-33.8,4.2-41.2c3-3.3,9.6-5,15.5-5.5c26.9-1.9,55.2,0,83.3,0C138.7,15,166.6,15,193.9,15z"/>
<path class="st0" d="M208.1,15c43.2,0,91.6,0,137.9,0c15.4,0,37.1-1.9,43.9,5.5c6.5,7.2,4.6,27.6,4.6,42.1c0,46.3,0,93.4,0,139.2
	c-15.7-0.6-37.6,1.2-53.1-1c-0.4-9.4,1.9-20.5-1.4-29.2c-6-15.9-24.5-27.3-43-25.6c-16.9,1.5-34.5,15-37.1,32.4
	c-1.1,7.5,1.4,13.9,1,22c-7.3,2.5-16.8,1.4-26.1,1.4c-9.1,0-18.8,0-27.4,0c0.8-11.1,0.4-24.5,0.4-37.6c0-12.3,1.7-26.5-4.6-33.4
	c-9.4,0.6-14.3,5.1-22.9,5c-15.9-0.1-28-13.3-27-29.2s14.7-27.6,32.4-24.7c4,0.7,11.8,6,16.9,4.6c6.9-1.8,5-22.9,5-32.6
	c0-14.3,0-25.4,0-37.6C207.5,15.8,207.5,15.1,208.1,15z"/>
<path class="st0" d="M8,216.6c17.2,0.8,37.7-1.7,52.7,1.4c0.4,8-1.7,14.8-1,21.5c2.2,20.1,23.1,33.3,40.7,33.4
	c19.7,0.1,40.9-15.5,41.7-37.1c0.3-6.8-2.1-11.4-1-18.3c15.9-2.1,35.6-0.3,53.1-1c0,12.3,0,23.8,0,37.6c0,10.5-2.5,30.8,4.2,33.4
	c4.9,1.9,12.3-3.3,16.5-4.2c14-2.5,24.8,4,29.8,12.3c10.7,17.9-1.8,43.8-27,41.2c-2.9-0.3-6.4-1.8-9.1-2.8c-1.8-0.6-6.4-2.9-9.1-2.2
	c-7.8,1.7-5,24.4-5,33.4c0,13.7,0,24.7,0,38c-46.3,0-93.7,0-141.6,0c-23.3,0-43,1.5-45.3-19.3c-1.5-12.9,0-27.7,0-41.7
	c0-40.3,0-85.2,0-124.5C7.4,217.3,7.4,216.6,8,216.6z"/>
<path class="st0" d="M374.8,243.9c0.3,0,0.6,0,1,0c12.3,13,23.7,23.7,37.1,37.1c3.3,3.3,8.7,10.7,14.1,10.1s6.5-9.4,9.1-13.7
	c4.6-7.3,13.6-14.1,23.8-14.1c16.5-0.1,28.7,13,27.4,29.2c-1,13-8.5,19.3-17.5,23.8c-3.6,1.8-9.3,2.9-10.1,6.9
	c-1.2,6.5,7.1,12.2,10.1,15.1c11.1,11.1,19.4,19.8,30.6,31.2c1.7,1.7,6.4,5.3,6.4,6c0,1-6.7,7.2-7.8,8.2
	c-35.6,35.6-70,67.5-104.4,103.9c-4.9,5.3-11.2,13-19.3,13.3c-8,0.3-14.6-6.8-20.1-12.3c-35.1-35.1-68.9-69.3-104.4-104.8
	c-1.7-1.7-8.2-7.1-8.2-7.8c0-1.4,7.5-7.9,9.1-9.6c7.1-7.1,11.6-11.6,18.7-18.7c2.4-2.4,7.3-8.5,10.5-8.2
	c3.9,0.3,10.5,12.3,13.3,14.7c14.6,12.3,41.9,7.9,54-4.2c11.9-11.8,17.7-39.2,4.2-54.9c-1.8-2.1-4.7-3.9-7.3-6
	c-1.5-1.2-6.5-4-6.9-6.4c-0.4-3.2,5.4-8.2,7.8-10.5C356.1,262.2,365.8,252.6,374.8,243.9z"/>
</svg>
