<?xml version="1.0" encoding="utf-8"?>
<!-- Generator: Adobe Illustrator 21.0.0, SVG Export Plug-In . SVG Version: 6.00 Build 0)  -->
<svg version="1.1" id="Layer_1" xmlns="http://www.w3.org/2000/svg" xmlns:xlink="http://www.w3.org/1999/xlink" x="0px" y="0px"
	 viewBox="0 0 512 512" style="enable-background:new 0 0 512 512;" xml:space="preserve">
<style type="text/css">
	.st0{fill:#FFFFFF;}
	.st1{fill-rule:evenodd;clip-rule:evenodd;fill:#FFFFFF;}
</style>
<path class="st0" d="M344.9,48.3c3.3,0,6.6-1.4,8.9-3.7s3.7-5.6,3.7-8.9c0-3.3-1.4-6.6-3.7-8.9c-2.3-2.3-5.6-3.7-8.9-3.7
	s-6.6,1.4-8.9,3.7s-3.7,5.6-3.7,8.9s1.4,6.6,3.7,8.9C338.3,46.9,341.6,48.3,344.9,48.3z"/>
<path class="st0" d="M167.6,463.9c-3.3,0-6.6,1.4-8.9,3.7c-2.3,2.3-3.7,5.6-3.7,8.9s1.4,6.6,3.7,8.9s5.6,3.7,8.9,3.7
	s6.6-1.4,8.9-3.7c2.3-2.3,3.7-5.6,3.7-8.9s-1.4-6.6-3.7-8.9C174.1,465.2,170.9,463.9,167.6,463.9z"/>
<g>
	<path class="st1" d="M302.3,359.6c-3.2-25.3,9.5-50.2,11-74.8c0.5-8.8,0.4-18.7,0-27.8c-0.7-15.7-5.8-30.5-7.7-46
		c-0.6-5,0.9-9.7,0-14.4c-4.3-22.7-21.4-44.2-24.2-70c-1.8-16.6,3.1-31.1,0-48.9c-5.6-3.4-15.2-4.8-24.9-4.9v0c-0.2,0-0.5,0-0.7,0
		c-0.2,0-0.5,0-0.7,0v0c-9.8,0.1-19.3,1.5-24.9,4.9c-3.1,17.8,1.8,32.2,0,48.9c-2.8,25.7-19.8,47.3-24.2,70c-0.9,4.7,0.6,9.4,0,14.4
		c-1.9,15.5-7,30.3-7.7,46c-0.4,9.1-0.5,19,0,27.8c1.5,24.5,14.2,49.4,11,74.8c-1.4,11.3-12.4,26.8-12.1,43.1
		c0.3,12.3,5.7,27,16.5,31.6c7.1,3,24.1,4.5,41.4,4.6l0,0c0.2,0,0.5,0,0.7,0c0.2,0,0.5,0,0.7,0l0,0c17.3,0,34.3-1.5,41.4-4.6
		c10.8-4.6,16.2-19.3,16.5-31.6C314.8,386.4,303.7,370.9,302.3,359.6z"/>
	<path class="st1" d="M396.1,380.7c-2.4-18.6,7-36.9,8.1-54.9c0.4-6.5,0.3-13.7,0-20.4c-0.5-11.5-4.3-22.4-5.6-33.8
		c-0.4-3.7,0.7-7.1,0-10.5c-3.2-16.7-15.7-32.5-17.7-51.3c-1.3-12.2,2.3-22.8,0-35.9c-4.1-2.5-11.1-3.6-18.3-3.6v0
		c-0.2,0-0.4,0-0.5,0c-0.2,0-0.4,0-0.5,0v0c-7.2,0-14.1,1.1-18.3,3.6c-2.3,13,1.3,23.7,0,35.9c-2,18.9-14.6,34.7-17.7,51.3
		c-0.7,3.5,0.4,6.9,0,10.5c-1.4,11.4-5.2,22.2-5.6,33.8c-0.3,6.7-0.4,13.9,0,20.4c1.1,18,10.4,36.3,8.1,54.9
		c-1,8.3-9.1,19.6-8.9,31.6c0.2,9,4.2,19.8,12.1,23.2c5.2,2.2,17.7,3.3,30.4,3.3l0,0c0.2,0,0.4,0,0.5,0c0.2,0,0.4,0,0.5,0l0,0
		c12.7,0,25.2-1.1,30.4-3.3c7.9-3.4,11.9-14.2,12.1-23.2C405.2,400.4,397.2,389,396.1,380.7z"/>
	<path class="st1" d="M183.8,380.7c-2.4-18.6,7-36.9,8.1-54.9c0.4-6.5,0.3-13.7,0-20.4c-0.5-11.5-4.3-22.4-5.6-33.8
		c-0.4-3.7,0.7-7.1,0-10.5c-3.2-16.7-15.7-32.5-17.7-51.3c-1.3-12.2,2.3-22.8,0-35.9c-4.1-2.5-11.1-3.6-18.3-3.6v0
		c-0.2,0-0.4,0-0.5,0c-0.2,0-0.4,0-0.5,0v0c-7.2,0-14.1,1.1-18.3,3.6c-2.3,13,1.3,23.7,0,35.9c-2,18.9-14.6,34.7-17.7,51.3
		c-0.7,3.5,0.4,6.9,0,10.5c-1.4,11.4-5.2,22.2-5.6,33.8c-0.3,6.7-0.4,13.9,0,20.4c1.1,18,10.4,36.3,8.1,54.9
		c-1,8.3-9.1,19.6-8.9,31.6c0.2,9,4.2,19.8,12.1,23.2c5.2,2.2,17.7,3.3,30.4,3.3l0,0c0.2,0,0.4,0,0.5,0c0.2,0,0.4,0,0.5,0l0,0
		c12.7,0,25.2-1.1,30.4-3.3c7.9-3.4,11.9-14.2,12.1-23.2C192.9,400.4,184.8,389,183.8,380.7z"/>
</g>
<path class="st0" d="M453.5,102.6c10.1-17,7.5-38.9-6.6-53c-8.2-8.2-19.1-12.7-30.7-12.7s-22.5,4.5-30.7,12.7s-12.7,19.1-12.7,30.7
	s4.5,22.5,12.7,30.7s19.1,12.7,30.7,12.7c6.5,0,12.8-1.4,18.6-4.2c29.7,39,46,87.4,46,136.4c0,124-100.9,224.9-224.9,224.9
	c-15,0-29.8-1.4-44.4-4.3c-6.8-1.4-13.4,3.1-14.8,9.8c-1.4,6.8,3.1,13.4,9.8,14.8c16.1,3.2,32.7,4.8,49.3,4.8
	c66.8,0,129.5-26,176.7-73.3c47.2-47.2,73.3-110,73.3-176.7C506,200.7,487.4,146.3,453.5,102.6z M416.1,98.8
	c-4.9,0-9.5-1.9-12.9-5.4c-3.5-3.5-5.4-8.1-5.4-12.9c0-4.9,1.9-9.5,5.4-12.9c3.5-3.5,8.1-5.4,12.9-5.4c4.9,0,9.5,1.9,12.9,5.4
	c7.1,7.1,7.1,18.8,0,26C425.7,96.8,421.1,98.8,416.1,98.8z"/>
<path class="st0" d="M95.9,388.1c-6.5,0-12.8,1.4-18.6,4.2C47.4,353.4,31.1,305,31.1,256C31.1,132,132,31.1,256,31.1
	c15.1,0,30.1,1.5,44.8,4.4c3.3,0.7,6.7,0,9.5-1.8s4.7-4.7,5.4-8c1.4-6.8-3-13.4-9.8-14.8C289.5,7.6,272.7,6,256,6
	C189.2,6,126.5,32,79.3,79.3C32,126.5,6,189.2,6,256c0,55.3,18.6,109.7,52.5,153.3c-4.1,6.8-6.2,14.4-6.2,22.3
	c0,11.6,4.5,22.5,12.7,30.7S84.1,475,95.7,475s22.5-4.5,30.7-12.7s12.7-19.1,12.7-30.7s-4.5-22.5-12.7-30.7
	C118.4,392.7,107.4,388.1,95.9,388.1z M108.8,444.6L108.8,444.6c-3.5,3.5-8.1,5.4-12.9,5.4c-4.9,0-9.5-1.9-12.9-5.4
	c-3.5-3.5-5.4-8.1-5.4-12.9c0-4.9,1.9-9.5,5.4-12.9c3.5-3.5,8.1-5.4,12.9-5.4c4.9,0,9.5,1.9,12.9,5.4c3.5,3.5,5.4,8.1,5.4,12.9
	C114.2,436.5,112.3,441.1,108.8,444.6z"/>
</svg>
