<?xml version="1.0" encoding="utf-8"?>
<!-- Generator: Adobe Illustrator 21.0.0, SVG Export Plug-In . SVG Version: 6.00 Build 0)  -->
<svg version="1.1" id="Capa_1" xmlns="http://www.w3.org/2000/svg" xmlns:xlink="http://www.w3.org/1999/xlink" x="0px" y="0px"
	 viewBox="0 0 512 512" style="enable-background:new 0 0 512 512;" xml:space="preserve">
<style type="text/css">
	.st0{fill:#FFFFFF;}
	.st1{fill-rule:evenodd;clip-rule:evenodd;fill:#FFFFFF;}
</style>
<g>
	<path class="st0" d="M385.8,311.7c-11.2-2.7-22.4,4.3-25.1,15.5c-2.7,11.2,4.3,22.4,15.5,25.1c64.7,15.4,88.2,38.1,88.2,49.6
		c0,24.9-83.1,62.5-208.3,62.5c-125.2,0-208.3-37.6-208.3-62.5c0-11.5,23.5-34.2,88.1-49.6c11.2-2.6,18.1-13.9,15.5-25.1
		c-2.6-11.2-13.9-18.2-25.1-15.5C48.7,330.1,6,362.1,6,401.8C6,470.2,131.8,506,256,506c124.2,0,250-35.8,250-104.2
		C506,362.1,463.3,330.1,385.8,311.7z"/>
	<path class="st0" d="M228.9,394.2l8.5,17c3.5,7.1,10.7,11.5,18.6,11.5c7.9,0,15.1-4.5,18.6-11.5l18-35.9
		c21.9-43.7,48.8-86.1,74.9-127l11.9-18.7c14.7-23.2,22.5-50.1,22.5-77.7c0-41.5-17.8-81.2-48.7-108.8C322.1,15.4,280.5,2.1,239,7
		c-64.8,7.4-118.4,59.6-127.4,124.1c-5.3,38.2,4.2,76.2,26.9,107C173.9,286,201.4,339.2,228.9,394.2z M256,36.9
		c63.4,0,115,51.6,115,115s-51.6,115-115,115s-115-51.6-115-115C141,88.5,192.6,36.9,256,36.9z"/>
</g>
<g>
	<path class="st1" d="M279.3,195.8c-1.6-12.7,4.8-25.1,5.5-37.4c0.3-4.4,0.2-9.4,0-13.9c-0.3-7.9-2.9-15.2-3.8-23
		c-0.3-2.5,0.4-4.8,0-7.2c-2.2-11.3-10.7-22.1-12.1-35c-0.9-8.3,1.6-15.5,0-24.4c-2.8-1.7-7.6-2.4-12.5-2.4v0c-0.1,0-0.2,0-0.4,0
		c-0.1,0-0.2,0-0.4,0v0c-4.9,0-9.6,0.8-12.5,2.4c-1.6,8.9,0.9,16.1,0,24.4c-1.4,12.9-9.9,23.6-12.1,35c-0.4,2.4,0.3,4.7,0,7.2
		c-0.9,7.8-3.5,15.1-3.8,23c-0.2,4.5-0.3,9.5,0,13.9c0.7,12.3,7.1,24.7,5.5,37.4c-0.7,5.6-6.2,13.4-6,21.6
		c0.1,6.2,2.8,13.5,8.2,15.8c3.5,1.5,12.1,2.3,20.7,2.3l0,0c0.1,0,0.2,0,0.4,0c0.1,0,0.2,0,0.4,0l0,0c8.6,0,17.1-0.8,20.7-2.3
		c5.4-2.3,8.1-9.7,8.2-15.8C285.5,209.2,280,201.4,279.3,195.8z"/>
	<path class="st1" d="M326.2,206.3c-1.2-9.3,3.5-18.4,4-27.4c0.2-3.2,0.1-6.9,0-10.2c-0.2-5.8-2.1-11.2-2.8-16.9
		c-0.2-1.8,0.3-3.5,0-5.3c-1.6-8.3-7.9-16.2-8.9-25.7c-0.7-6.1,1.1-11.4,0-17.9c-2.1-1.2-5.6-1.8-9.1-1.8v0c-0.1,0-0.2,0-0.3,0
		c-0.1,0-0.2,0-0.3,0v0c-3.6,0-7.1,0.6-9.1,1.8c-1.1,6.5,0.7,11.8,0,17.9c-1,9.4-7.3,17.3-8.9,25.7c-0.3,1.7,0.2,3.4,0,5.3
		c-0.7,5.7-2.6,11.1-2.8,16.9c-0.1,3.3-0.2,7,0,10.2c0.5,9,5.2,18.1,4,27.4c-0.5,4.1-4.6,9.8-4.4,15.8c0.1,4.5,2.1,9.9,6,11.6
		c2.6,1.1,8.8,1.7,15.2,1.7l0,0c0.1,0,0.2,0,0.3,0c0.1,0,0.2,0,0.3,0l0,0c6.3,0,12.6-0.6,15.2-1.7c4-1.7,5.9-7.1,6-11.6
		C330.7,216.2,326.7,210.5,326.2,206.3z"/>
	<path class="st1" d="M220,206.3c-1.2-9.3,3.5-18.4,4-27.4c0.2-3.2,0.1-6.9,0-10.2c-0.2-5.8-2.1-11.2-2.8-16.9
		c-0.2-1.8,0.3-3.5,0-5.3c-1.6-8.3-7.9-16.2-8.9-25.7c-0.7-6.1,1.1-11.4,0-17.9c-2.1-1.2-5.6-1.8-9.1-1.8v0c-0.1,0-0.2,0-0.3,0
		c-0.1,0-0.2,0-0.3,0v0c-3.6,0-7.1,0.6-9.1,1.8c-1.1,6.5,0.7,11.8,0,17.9c-1,9.4-7.3,17.3-8.9,25.7c-0.3,1.7,0.2,3.4,0,5.3
		c-0.7,5.7-2.6,11.1-2.8,16.9c-0.1,3.3-0.2,7,0,10.2c0.5,9,5.2,18.1,4,27.4c-0.5,4.1-4.6,9.8-4.4,15.8c0.1,4.5,2.1,9.9,6,11.6
		c2.6,1.1,8.8,1.7,15.2,1.7l0,0c0.1,0,0.2,0,0.3,0c0.1,0,0.2,0,0.3,0l0,0c6.3,0,12.6-0.6,15.2-1.7c4-1.7,5.9-7.1,6-11.6
		C224.5,216.2,220.5,210.5,220,206.3z"/>
</g>
</svg>
