<?xml version="1.0" encoding="utf-8"?>
<!-- Generator: Adobe Illustrator 21.0.0, SVG Export Plug-In . SVG Version: 6.00 Build 0)  -->
<svg version="1.1" id="Capa_1" xmlns="http://www.w3.org/2000/svg" xmlns:xlink="http://www.w3.org/1999/xlink" x="0px" y="0px"
	 viewBox="0 0 512 512" style="enable-background:new 0 0 512 512;" xml:space="preserve">
<style type="text/css">
	.st0{fill:#FFFFFF;}
</style>
<g>
	<g>
		<g>
			<path class="st0" d="M290,338.1c-1.9-2-4.2-3.6-6.7-4.8c-5.3-2.8-11.1-4.5-16.9-6V372c9.4-1.1,20.1-4.5,25-13.2l0,0
				c2.3-4.2,2.8-9.3,1.9-14C292.8,342.4,291.7,340,290,338.1z"/>
		</g>
		<g>
			<path class="st0" d="M291.4,358.9C291.4,358.9,291.5,358.9,291.4,358.9L291.4,358.9C291.5,358.9,291.4,358.9,291.4,358.9z"/>
		</g>
		<g>
			<path class="st0" d="M222.5,266.6c-1.6,2.4-2.6,5-2.9,7.9c-0.3,2.8-0.1,6,1,8.7c1,2.6,3.2,4.4,5.4,6c2.5,1.7,5.2,3,8,4.2
				c2.3,0.9,5,1.8,7.8,2.7v-40.5C234.6,257.1,226.8,260.4,222.5,266.6z"/>
		</g>
		<g>
			<path class="st0" d="M291.7,358.5c-0.1,0.1-0.1,0.2-0.2,0.3l0,0C291.6,358.7,291.6,358.6,291.7,358.5z"/>
		</g>
		<g>
			<path class="st0" d="M291.9,358.1L291.9,358.1L291.9,358.1z"/>
		</g>
		<g>
			<path class="st0" d="M282.2,114.8c38-32,63.5-103.9,47.8-107.1c-20.8-4.2-65.9,14.2-87.7,17.4c-30.9,3.7-64.6-33.5-83.5-12.8
				c-15.4,16.9,11,78.3,52.3,105.1C87.8,178-85.4,482.1,216.8,504.2C634.9,534.7,425.6,173.8,282.2,114.8z M318.1,354.6
				c-1.3,11.9-7.6,22.6-17,29.9c-9.9,7.7-22.4,11.3-34.7,12.3v13.1c0,3.5-1.5,6.9-4.2,9.2c-3.6,3.2-8.9,4-13.3,2
				c-4.3-2-7.2-6.4-7.2-11.2v-14.3c-2.1-0.4-4.2-0.9-6.3-1.5c-11.5-3.2-22.3-9.4-30.1-18.5c-3.9-4.6-7.1-9.7-9.3-15.3
				c-0.6-1.5-1.1-2.9-1.5-4.5c-0.4-1.4-0.8-2.7-1-4.2c-0.2-2.4,0.2-4.8,1.3-6.9c2.3-4.4,7.1-7,12-6.6c4.8,0.4,9.1,3.8,10.6,8.4
				c0.5,1.4,0.8,2.9,1.3,4.3s1.2,2.7,1.9,4c1.5,2.5,3.3,4.9,5.4,6.9c4.3,4.2,9.9,6.9,15.7,8.5v-48.7c-11.3-2.9-22.9-6.7-32.2-13.9
				c-4.5-3.5-8.4-7.9-10.9-13.1c-2.7-5.5-3.8-11.6-3.8-17.6c0-6.1,1.1-12.2,3.7-17.8c2.4-5.2,5.9-9.9,10.1-13.8
				c9.1-8.3,21.1-13,33.2-14.7v-1.1V217c0-3.5,1.5-6.9,4.2-9.2c3.6-3.2,8.9-4,13.3-2c4.3,2,7.2,6.4,7.2,11.2v12.5v1
				c1.6,0.2,3.2,0.4,4.8,0.7c11.9,2.1,23.4,7,32.1,15.6c4.1,4,7.5,8.9,9.8,14.1c0.7,1.5,1.2,3,1.7,4.5c0.5,1.4,0.9,2.9,1.2,4.4
				c0.4,2.4,0,4.8-1,7c-2.1,4.5-6.8,7.3-11.7,7.1c-4.8-0.2-9.2-3.4-10.9-7.9c-0.5-1.3-0.8-2.8-1.3-4.1c-0.5-1.4-1.2-2.7-2-3.9
				c-1.5-2.4-3.5-4.4-5.8-6.1c-4.9-3.6-10.9-5.5-16.9-6.6V302c7.1,1.7,14.2,3.6,21,6.2c10.3,4.1,20,10.3,25.6,20.1
				c-0.9-1.5-1.7-3,0,0.1c1.7,3,0.9,1.6,0,0.1C317.6,336.3,319.1,345.7,318.1,354.6z"/>
		</g>
		<g>
			<path class="st0" d="M291.3,359.2c-0.1,0.1-0.1,0.2-0.2,0.3C291.2,359.4,291.2,359.3,291.3,359.2z"/>
		</g>
	</g>
</g>
</svg>
