<?xml version="1.0" encoding="utf-8"?>
<!-- Generator: Adobe Illustrator 21.0.0, SVG Export Plug-In . SVG Version: 6.00 Build 0)  -->
<svg version="1.1" id="Layer_1" xmlns="http://www.w3.org/2000/svg" xmlns:xlink="http://www.w3.org/1999/xlink" x="0px" y="0px"
	 viewBox="0 0 512 512" style="enable-background:new 0 0 512 512;" xml:space="preserve">
<style type="text/css">
	.st0{fill:#FFFFFF;}
</style>
<g>
	<polygon class="st0" points="6,454.9 6,484.2 506,484 506,454.7 476.7,454.8 476.7,369 388.8,369 388.8,454.8 359.5,454.8 
		359.5,310.4 271.6,310.4 271.6,454.8 242.3,454.8 242.3,251.8 154.4,251.8 154.4,454.8 125.1,454.8 125.1,193.2 37.2,193.2 
		37.2,454.9 	"/>
	<polygon class="st0" points="61.3,53.1 387.4,244.2 364.8,250.1 372.3,278.5 443.1,259.8 424.4,189 396.1,196.4 401.9,218.7 
		76.1,27.8 	"/>
</g>
</svg>
