<?xml version="1.0" encoding="utf-8"?>
<!-- Generator: Adobe Illustrator 21.0.0, SVG Export Plug-In . SVG Version: 6.00 Build 0)  -->
<svg version="1.1" id="Capa_1" xmlns="http://www.w3.org/2000/svg" xmlns:xlink="http://www.w3.org/1999/xlink" x="0px" y="0px"
	 viewBox="0 0 512 512" style="enable-background:new 0 0 512 512;" xml:space="preserve">
<style type="text/css">
	.st0{fill:#FFFFFF;}
</style>
<g>
	<path class="st0" d="M304.5,36.8l-24.6,91.8l6-116c-34-14.8-63.8,0-63.8,0l6,116l-24.6-91.8C135.2,55.8,91.8,111.5,91.8,186h324.5
		C416.3,111.5,373,55.8,304.5,36.8z"/>
	<path class="st0" d="M448.1,199.3H63.9V230h42.2l-0.2,10.3c0,0,0,3.6,0,5.7c-2.5,7.8-1.8,12.8,5.1,49.6c-0.8,0.8-1.5,1.6-2.2,2.5
		c-10,13.2-5,38.2-1,52.5c2.1,12.6,6.9,20.9,11.4,26.1C130.7,446,191.4,506,251,506c63.3,0,126.4-58.7,139.5-129.1
		c4.6-5.2,9.4-13.3,11.4-25.7c4.8-17.2,8.4-39.9-0.4-52.6c2.9-11.2,5.8-26.1,6.6-42.5c1.2-2.7,1.3-5.8,0.2-8.6c0-1.6,0-3-0.1-4.1
		l0.1-1.8c0.1-0.9,0-1.8-0.2-2.7l-1.6-8.9H448L448.1,199.3z M272.4,443.6v26.9v8.1H240V446c-19.5-1-37.5-6.1-47-11.2l9.7-34.9
		c11.3,5.7,29.2,11.4,47,11.4c19.5,0,30-8.1,30-21.1c0-11.3-8.9-18.6-31.6-25.9c-31.6-11.4-51.9-28.4-51.9-56
		c0-25.1,16-45.3,43.8-53.2v-36h32.4v32.5c19.3,0.6,33.2,4.4,43,9.7l-9.7,34.1c-7.3-4.1-21.1-8.9-38.9-8.9
		c-18.7,0-27.6,8.9-27.6,17.8c0,12.2,10.5,17,34.9,26.8c33.2,12.2,48.7,30,48.7,56.8C322.7,413.6,306.5,436.1,272.4,443.6z"/>
</g>
</svg>
