<?xml version="1.0" encoding="utf-8"?>
<!-- Generator: Adobe Illustrator 21.0.0, SVG Export Plug-In . SVG Version: 6.00 Build 0)  -->
<svg version="1.1" id="Outline" xmlns="http://www.w3.org/2000/svg" xmlns:xlink="http://www.w3.org/1999/xlink" x="0px" y="0px"
	 viewBox="0 0 512 512" style="enable-background:new 0 0 512 512;" xml:space="preserve">
<style type="text/css">
	.st0{fill:#FFFFFF;}
</style>
<path class="st0" d="M425.2,283.5v-142c0-9.1-2.7-17.9-8-25.3l-40.8-58.3c4.2-1.5,7.1-5.5,7.1-10.2V31c0-15.1-12.4-27.5-27.5-27.5
	h-50c-15.1,0-27.5,12.4-27.5,27.5v16.7c0,4.7,3,8.7,7.1,10.2l-40.8,58.3c-5.2,7.5-8,16.2-8,25.3v78.7H114.3c-6,0-10.8,4.9-10.8,10.8
	v30.8l-15.5,31c-0.7,1.5-1.1,3.2-1.1,4.8v166.7c0,1.7,0.4,3.3,1.1,4.8l16.7,33.3c1.8,3.7,5.6,6,9.7,6h133.3c3.4,0,6.4-1.5,8.5-4.1
	c14.2,7.4,31.7,4.4,42.7-7.3c8.3,7.2,19.9,11.3,32.2,11.3c12.3,0,23.9-4.1,32.2-11.3c5.9,6.3,13.7,10.2,22.3,11.1
	c1.3,0.1,2.6,0.2,3.9,0.2c8.1,0,16-2.8,22.4-7.9c8.5-6.8,13.3-17,13.3-27.9c0-0.3,0-0.5,0-0.7l-8.3-132.2l8-56.3h0.3V283.5z
	 M121,486.8l-5.8-11.7h131.6l-5.8,11.7H121z M208.5,264.3c0-6-4.9-10.8-10.8-10.8h-72.5v-11.7h111.7v11.7H231
	c-6,0-10.8,4.9-10.8,10.8s4.9,10.8,10.8,10.8h10l5.8,11.7H115.2l5.8-11.7h76.6C203.6,275.2,208.5,270.3,208.5,264.3z M241.8,372.7
	c0-23.4-6.6-45.4-13.5-64.2h25.1v145h-32.6C231.4,433.8,241.8,409.5,241.8,372.7z M187.5,453.5c10.5-19.7,21-44,21-80.8
	c0-23.4-6.6-45.4-13.5-64.2h10.2c7.8,20.4,15,42.3,15,64.2c0,35-9.9,55.8-24,80.8H187.5z M186.8,372.7c0,35-9.9,55.8-24,80.8h-54.3
	v-145h63.4C179.7,328.9,186.8,350.8,186.8,372.7z M350.4,58.5l49.1,70.1c2.7,3.8,4.1,8.3,4.1,12.9v12h-145v-12
	c0-4.6,1.4-9.1,4.1-12.9l49.1-70.1C311.8,58.5,350.4,58.5,350.4,58.5z M258.5,175.2h145v95H262.7l-4.2-8.4V175.2z M353.5,472.7
	c0,7.5-10.5,14.2-22.5,14.2s-22.5-6.6-22.5-14.2c0-6-4.9-10.8-10.8-10.8s-10.8,4.9-10.8,10.8c0,3.8-1.5,7.3-4.1,10
	c-2.7,2.7-6.2,4.1-10,4.2l0,0c-2.3,0-4.6-0.6-6.6-1.7l8-16c0.7-1.5,1.1-3.2,1.1-4.8V297.7c0-1.7-0.4-3.3-1.1-4.8l-0.5-1H402l-6.6,46
	c-0.1,0.7-0.1,1.5-0.1,2.2l8.3,132.9c-0.2,7.7-6.5,13.9-14.2,13.9c-7.8,0-14.2-6.4-14.2-14.2c0-6-4.9-10.8-10.8-10.8
	S353.5,466.7,353.5,472.7z M300.2,36.8V31c0-3.2,2.6-5.8,5.8-5.8h50c3.2,0,5.8,2.6,5.8,5.8v5.8H300.2z"/>
</svg>
