<?xml version="1.0" encoding="utf-8"?>
<!-- Generator: Adobe Illustrator 21.0.0, SVG Export Plug-In . SVG Version: 6.00 Build 0)  -->
<svg version="1.1" id="Capa_1" xmlns="http://www.w3.org/2000/svg" xmlns:xlink="http://www.w3.org/1999/xlink" x="0px" y="0px"
	 viewBox="0 0 512 512" style="enable-background:new 0 0 512 512;" xml:space="preserve">
<style type="text/css">
	.st0{fill:#FFFFFF;}
</style>
<g>
	<path class="st0" d="M493,425.5l-52.2-5.9v-32.4l52.2-5.9c4.7-0.5,8.8-3.3,11.1-7.4c2.3-4.1,2.5-9.1,0.5-13.3
		c-16.7-36.3-53.3-59.8-93.2-59.8c-36.7,0-70.6,19.8-88.8,51.3H189.3c-18.2-31.4-52.1-51.3-88.8-51.3c-39.9,0-76.5,23.5-93.2,59.8
		c-2,4.3-1.8,9.2,0.5,13.3c2.3,4.1,6.4,6.8,11.1,7.4l52.2,5.9v32.4L19,425.5c-4.7,0.5-8.8,3.3-11.1,7.4s-2.5,9.1-0.5,13.3
		c16.7,36.3,53.3,59.8,93.2,59.8c36.7,0,70.6-19.8,88.8-51.3h133.4c18.2,31.4,52.1,51.3,88.8,51.3c39.9,0,76.5-23.5,93.2-59.8
		c2-4.3,1.8-9.2-0.5-13.3C501.8,428.8,497.7,426,493,425.5L493,425.5z M411.5,476.7c-28.5,0-54.6-16.8-66.6-42.7
		c-2.4-5.2-7.6-8.5-13.3-8.5H180.4c-5.7,0-10.9,3.3-13.3,8.5c-12,26-38.1,42.7-66.6,42.7c-21.2,0-41.1-9.3-54.8-24.7l41.8-4.7
		c7.4-0.8,13-7.1,13-14.6v-58.6c0-7.5-5.6-13.7-13-14.6l-41.8-4.7c13.7-15.4,33.6-24.7,54.8-24.7c28.5,0,54.6,16.8,66.6,42.7
		c2.4,5.2,7.6,8.5,13.3,8.5h151.1c5.7,0,10.9-3.3,13.3-8.5c12-26,38.1-42.7,66.6-42.7c21.2,0,41.1,9.3,54.8,24.7l-41.8,4.7
		c-7.4,0.8-13,7.1-13,14.6v58.6c0,7.5,5.6,13.7,13,14.6l41.8,4.7C452.5,467.4,432.6,476.7,411.5,476.7L411.5,476.7z"/>
	<path class="st0" d="M109.5,130.6l17.5,10.1c-1.4,7.8-2.1,15.7-2.1,23.7s0.7,15.9,2.1,23.7l-17.5,10.1c-3.4,1.9-5.8,5.1-6.8,8.9
		c-1,3.8-0.5,7.8,1.5,11.1l29.3,50.7c4,7,13,9.4,20,5.4l17.6-10.1c12.2,10.4,26.1,18.4,41,23.7v20.3c0,8.1,6.6,14.6,14.6,14.6h58.6
		c8.1,0,14.6-6.6,14.6-14.6V288c15-5.3,28.9-13.4,41-23.7l17.6,10.1c3.4,1.9,7.4,2.5,11.1,1.5c3.8-1,7-3.5,8.9-6.8l29.3-50.7
		c4-7,1.6-16-5.4-20L385,188.2c1.4-7.8,2.1-15.7,2.1-23.7s-0.7-15.9-2.1-23.7l17.5-10.1c7-4,9.4-13,5.4-20L378.6,60
		c-1.9-3.4-5.1-5.8-8.9-6.8s-7.8-0.5-11.1,1.5L341,64.6c-12.2-10.4-26.1-18.4-41-23.7V20.6c0-8.1-6.6-14.6-14.6-14.6h-58.6
		c-8.1,0-14.6,6.6-14.6,14.6v20.2c-15,5.3-28.9,13.4-41,23.7l-17.6-10.1c-3.4-1.9-7.4-2.5-11.1-1.5c-3.8,1-7,3.5-8.9,6.8l-29.3,50.7
		C100.1,117.6,102.5,126.6,109.5,130.6L109.5,130.6z M151.5,87.2l14.2,8.2c5.8,3.3,13.1,2.3,17.8-2.4c12.9-13.1,29.2-22.5,46.9-27.1
		c6.5-1.7,11-7.5,11-14.2V35.3h29.3v16.4c0,6.7,4.5,12.5,11,14.2c17.7,4.6,33.9,14,46.9,27.1c4.7,4.7,12,5.7,17.8,2.4l14.2-8.2
		l14.6,25.4l-14.2,8.2c-5.8,3.3-8.6,10.1-6.8,16.6c2.4,8.8,3.7,17.9,3.7,27.1c0,9.2-1.2,18.3-3.7,27.1c-1.8,6.4,1,13.2,6.8,16.6
		l14.2,8.2l-14.6,25.4l-14.2-8.2c-5.8-3.3-13.1-2.3-17.8,2.4c-12.9,13.1-29.2,22.5-46.9,27.1c-6.5,1.7-11,7.5-11,14.2v16.4h-29.3
		v-16.4c0-6.7-4.5-12.5-11-14.2c-17.7-4.6-33.9-14-46.9-27.1c-4.7-4.8-12-5.7-17.8-2.4l-14.2,8.2l-14.6-25.4l14.2-8.2
		c5.8-3.3,8.6-10.1,6.8-16.6c-2.4-8.8-3.7-17.9-3.7-27.1c0-9.2,1.2-18.3,3.7-27.1c1.8-6.4-1-13.2-6.8-16.6l-14.2-8.2L151.5,87.2z"/>
	<path class="st0" d="M257.7,227.2c34.6,0,62.7-28.1,62.7-62.7s-28.1-62.7-62.7-62.7S195,129.9,195,164.5S223.1,227.2,257.7,227.2z
		 M257.7,131c18.4,0,33.4,15,33.4,33.4s-15,33.4-33.4,33.4s-33.4-15-33.4-33.4S239.2,131,257.7,131z"/>
</g>
</svg>
