<?xml version="1.0" encoding="utf-8"?>
<!-- Generator: Adobe Illustrator 21.0.0, SVG Export Plug-In . SVG Version: 6.00 Build 0)  -->
<svg version="1.1" id="Capa_1" xmlns="http://www.w3.org/2000/svg" xmlns:xlink="http://www.w3.org/1999/xlink" x="0px" y="0px"
	 viewBox="0 0 512 512" style="enable-background:new 0 0 512 512;" xml:space="preserve">
<style type="text/css">
	.st0{fill:#FFFFFF;}
</style>
<g>
	<path class="st0" d="M377.1,202.5c29.4-46.5,45.5-107.8,45.5-172.7V12.6c0-3.7-3-6.6-6.6-6.6H95.9c-3.7,0-6.6,3-6.6,6.6v17.2
		c0,64.9,16.2,126.2,45.5,172.7c14.3,22.6,30.9,40.6,49.2,53.5c-18.3,12.9-34.9,30.9-49.2,53.5C105.5,356,89.3,417.3,89.3,482.2
		v17.2c0,3.7,3,6.6,6.6,6.6h320.1c3.7,0,6.6-3,6.6-6.6v-17.2c0-64.9-16.2-126.2-45.5-172.7c-14.3-22.6-30.9-40.6-49.2-53.5
		C346.2,243.1,362.9,225.1,377.1,202.5z M182,324.8c21.3-29.1,47.3-45,74-45s52.7,15.9,74,45H182z M374.2,53.6
		c-3.3,46.8-16.5,90.4-37.3,123.4c-22.5,35.6-51.2,55.2-80.9,55.2c-29.7,0-58.4-19.6-80.9-55.2c-20.9-33.1-34-76.7-37.3-123.4
		C137.8,53.6,374.2,53.6,374.2,53.6z"/>
</g>
</svg>
