<?xml version="1.0" encoding="utf-8"?>
<!-- Generator: Adobe Illustrator 21.0.0, SVG Export Plug-In . SVG Version: 6.00 Build 0)  -->
<svg version="1.1" id="Capa_1" xmlns="http://www.w3.org/2000/svg" xmlns:xlink="http://www.w3.org/1999/xlink" x="0px" y="0px"
	 viewBox="0 0 512 512" style="enable-background:new 0 0 512 512;" xml:space="preserve">
<style type="text/css">
	.st0{fill:#FFFFFF;}
</style>
<path class="st0" d="M437.8,165.1h-68.2V74.2H51.5C26.3,74.2,6,94.5,6,119.6v250h45.5c0,37.6,30.6,68.2,68.2,68.2
	s68.2-30.6,68.2-68.2h136.4c0,37.6,30.6,68.2,68.2,68.2s68.2-30.6,68.2-68.2H506V256L437.8,165.1z M119.6,403.7
	c-18.9,0-34.1-15.2-34.1-34.1c0-18.9,15.2-34.1,34.1-34.1c18.9,0,34.1,15.2,34.1,34.1C153.7,388.5,138.5,403.7,119.6,403.7z
	 M211.9,284.7v20.8v6.3h-25v-25.1c-15-0.7-28.9-4.7-36.3-8.6l7.5-26.9c8.7,4.4,22.5,8.8,36.3,8.8c15,0,23.1-6.2,23.1-16.3
	c0-8.7-6.9-14.4-24.4-20c-24.4-8.8-40-21.9-40-43.1c0-19.3,12.3-34.9,33.8-41v-27.8h25v25.1c14.9,0.4,25.6,3.4,33.1,7.4l-7.5,26.3
	c-5.6-3.1-16.3-6.9-30-6.9c-14.4,0-21.3,6.9-21.3,13.8c0,9.4,8.1,13.1,26.9,20.6c25.6,9.4,37.5,23.1,37.5,43.8
	C250.6,261.6,238.1,279,211.9,284.7z M392.4,403.7c-18.9,0-34.1-15.2-34.1-34.1c0-18.9,15.2-34.1,34.1-34.1
	c18.9,0,34.1,15.2,34.1,34.1C426.5,388.5,411.2,403.7,392.4,403.7z M369.6,256v-56.8h56.8l44.7,56.8H369.6z"/>
</svg>
